<?xml version="1.0" standalone="no"?>
<!DOCTYPE svg PUBLIC "-//W3C//DTD SVG 1.1//EN" "http://www.w3.org/Graphics/SVG/1.1/DTD/svg11.dtd" >
<svg xmlns="http://www.w3.org/2000/svg">
<metadata>Generated by IcoMoon</metadata>
<defs>
<font id="iqoniqthemes" horiz-adv-x="1024">
<font-face units-per-em="1024" ascent="960" descent="-64" />
<missing-glyph horiz-adv-x="1024" />
<glyph unicode="&#x20;" horiz-adv-x="512" d="" />
<glyph unicode="&#xe900;" d="M184.216 280.864l161.436-160.636c8.79-8.79 24.774-135.862 15.984-144.653l-31.968-31.968c-8.79-8.79-23.177-8.79-31.968 0l-144.653 144.653c-51.947 51.947-104.694 103.894-129.468 129.468l-15.984 15.984c-8.79 8.79-8.79 23.177 0 31.968l31.968 31.968c8.79 8.79 135.86-7.993 144.653-16.783z" />
<glyph unicode="&#xe901;" d="M244.154 863.47c-23.975 0-43.956-19.979-43.956-43.956s19.979-43.956 43.956-43.956 43.956 19.979 43.956 43.956-19.981 43.956-43.956 43.956zM380.016 815.52c-23.975 0-43.956-19.979-43.956-43.956s19.979-43.956 43.956-43.956 43.956 19.979 43.956 43.956-19.981 43.956-43.956 43.956zM879.508 324.019c0 23.975-19.979 43.956-43.956 43.956s-43.956-19.979-43.956-43.956c0-23.975 19.979-43.956 43.956-43.956s43.956 19.182 43.956 43.956zM883.503 232.113c-23.975 0-43.956-19.979-43.956-43.956 0-23.975 19.979-43.956 43.956-43.956 23.975 0 43.956 19.979 43.956 43.956-0.002 23.977-19.981 43.956-43.956 43.956z" />
<glyph unicode="&#xe902;" d="M598.993 692.444l158.24-158.24c17.583-17.583 191.805-504.287 174.222-521.87l-63.136-63.136c-17.583-17.583-45.553-17.583-63.136 0l-349.245 443.552-442.75 347.646c-17.583 17.583-17.583 45.553 0 63.136l63.136 63.136c17.583 17.581 505.087-156.641 522.669-174.224z" />
<glyph unicode="&#xe903;" d="M1004.98 940.193c43.956-43.956 4.795-153.443-47.152-206.19l-571.419-570.619c-52.747-52.747-241.355-171.026-285.31-127.072s74.325 232.563 127.072 285.31l570.619 571.419c52.745 52.747 162.233 91.106 206.19 47.152z" />
<glyph unicode="&#xe904;" d="M267.331 283.261l570.619 570.619c44.754 44.754 130.268 79.12 181.415 62.337-3.196 9.59-7.991 17.583-14.385 24.774-43.956 43.956-153.445 4.797-206.192-47.95l-570.619-570.619c-52.747-52.747-170.226-241.353-127.072-285.31 6.394-6.394 16.783-9.59 29.569-9.59 0.802 68.729 91.908 210.985 136.664 255.738z" />
<glyph unicode="&#xe905;" d="M280.117 531.008l90.309-70.328 230.966 230.966-2.398 2.398c-4.795 4.795-49.549 23.177-110.288 46.353 0-0.002-208.588-209.39-208.588-209.39z" />
<glyph unicode="&#xe906;" d="M526.267 303.24l278.116-354.040c15.984-15.984 41.558-16.783 59.141-3.196l-306.888 387.605-30.369-30.369zM398.396 491.849l-390.003 305.289c-11.988-17.583-10.389-41.558 4.795-56.742l354.84-278.116 30.369 29.569z" />
<glyph unicode="&#xe907;" d="M368.027 462.279l30.369 29.569-87.91 68.731-30.369-29.569 87.91-68.731z" />
<glyph unicode="&#xe908;" glyph-name="arrows" d="M1008.311 432.327h-992.623c-8.66 0-15.689 7.029-15.689 15.689s7.029 15.689 15.689 15.689h992.623c8.66 0 15.689-7.029 15.689-15.689s-7.029-15.689-15.689-15.689zM409.067 38.98c-4.016 0-8.033 1.537-11.108 4.581l-393.378 393.409c-2.918 2.949-4.581 6.934-4.581 11.108s1.663 8.158 4.581 11.108l393.409 393.221c6.119 6.119 16.065 6.119 22.184 0s6.119-16.065 0-22.184l-382.302-382.145 382.302-382.302c6.119-6.119 6.119-16.065 0-22.184-3.075-3.075-7.091-4.612-11.108-4.612z" />
<glyph unicode="&#xe909;" glyph-name="arrows-1" d="M1008.311 432.327h-992.623c-8.66 0-15.689 7.029-15.689 15.689s7.029 15.689 15.689 15.689h992.623c8.66 0 15.689-7.029 15.689-15.689s-7.029-15.689-15.689-15.689zM614.933 38.98c-4.016 0-8.033 1.537-11.108 4.581-6.119 6.119-6.119 16.065 0 22.184l382.302 382.302-382.302 382.176c-6.119 6.119-6.119 16.065 0 22.184s16.065 6.119 22.184 0l393.378-393.252c2.949-2.949 4.581-6.934 4.581-11.108s-1.663-8.158-4.581-11.108l-393.378-393.347c-3.044-3.075-7.060-4.612-11.076-4.612z" />
<glyph unicode="&#xe90a;" glyph-name="back" d="M311.568 448.027l462.455 462.455c11.374 11.374 11.374 29.614 0 40.988s-29.614 11.374-40.988 0l-483.056-483.056c-11.374-11.374-11.374-29.614 0-40.988l483.056-482.842c5.58-5.58 13.090-8.584 20.387-8.584s14.807 2.79 20.387 8.584c11.374 11.374 11.374 29.614 0 40.988l-462.24 462.455z" />
<glyph unicode="&#xe90b;" glyph-name="bed" d="M981.334 437.332v85.334c0 64.854-41.814 106.666-106.666 106.666h-490.668c-64.854 0-106.666-41.814-106.666-106.666v-84.666l-234.668-0.454v361.814c0 10.666-7.68 20.266-18.134 21.76-13.226 1.92-24.532-8.32-24.532-21.12v-703.36c0-10.666 7.68-20.266 18.134-21.76 13.226-1.92 24.534 8.32 24.534 21.12v128h938.666v-127.36c0-10.666 7.68-20.266 18.134-21.76 13.226-1.92 24.532 8.32 24.532 21.12v298.666c0 29.014-13.654 42.454-42.666 42.666zM320 522.666c0 55.68 40.106 64 64 64h490.666c23.894 0 64-8.32 64-64v-85.334h-618.666v85.334zM981.332 266.666h-938.666v128h938.666v-128zM161 675c-65.446 0-118.5-53.054-118.5-118.5s53.054-118.5 118.5-118.5 118.5 53.054 118.5 118.5c0 65.446-53.054 118.5-118.5 118.5zM161 476c-44.458 0-80.5 36.042-80.5 80.5s36.042 80.5 80.5 80.5 80.5-36.042 80.5-80.5-36.040-80.5-80.5-80.5z" />
<glyph unicode="&#xe90c;" glyph-name="bed-2" d="M942 300v-164h82v246h-942v336c0 10.672-4 20.338-12 29-8 8.666-17.666 13-29 13s-21-4.334-29-13-12-18.334-12-29v-582h82v164h860zM211 550c20.666 0 38.666 7.334 54 22 15.334 14.668 23 32.336 23 53 0 20.67-7.666 38.336-23 53-15.334 14.666-33.334 22-54 22s-38.334-7.334-53-22-22-32.334-22-53 7.334-38.334 22-53c14.666-14.666 32.334-22 53-22zM1024 444v100c0 16-5.666 29-17 39-11.34 10-25.674 16.334-43 19l-598 58c-10.666 0-19.666-3.666-27-11s-11-16.334-11-27v-116h-152c-25.334 0-38-10.334-38-31s12.666-31 38-31h848z" />
<glyph unicode="&#xe90d;" glyph-name="boat" d="M666.699 475.611v421.547c0 30.426 13.922 34.714 31.035 9.593l301.003-440.712c17.154-25.121 6.382-45.486-24.044-45.486h-252.916c-30.426 0-55.079 24.633-55.079 55.059zM693.75 344.62c-30.426 0-55.099 24.653-55.099 55.099v528.046c0 15.203-12.337 27.539-27.539 27.539-15.223 0-27.539-12.337-27.539-27.539v-528.026c0-30.446-23.536-55.099-52.599-55.099h-52.579c-30.426 0-49.917-24.125-43.514-53.839l1.87-8.597c6.402-29.734-13.089-53.839-43.514-53.839h-354.436c-30.426 0-46.258-23.027-35.364-51.441l70.749-184.809c10.874-28.413 44.368-51.441 74.793-51.441h673.304c30.426 0 63.92 23.027 74.814 51.441l88.878 232.144 33.23 70.546c12.947 27.539-1.219 49.856-31.645 49.856l-293.808-0.041z" />
<glyph unicode="&#xe90e;" glyph-name="briefcase" d="M640.006 283.429c0-9.905-3.625-18.485-10.856-25.713-7.239-7.247-15.816-10.864-25.721-10.864h-182.855c-9.911 0-18.479 3.617-25.719 10.864-7.237 7.225-10.856 15.806-10.856 25.713v91.425h-384v-274.288c0-25.138 8.949-46.658 26.856-64.561 17.903-17.905 39.431-26.858 64.575-26.858h841.145c25.138 0 46.664 8.953 64.569 26.858 17.911 17.903 26.856 39.423 26.856 64.561v274.288h-383.994v-91.425zM438.852 374.854h146.299v-73.143h-146.299v73.143zM997.142 713.713c-17.903 17.907-39.431 26.856-64.569 26.856h-201.149v91.433c0 15.239-5.33 28.189-16 38.856-10.658 10.662-23.617 15.998-38.85 15.998h-329.144c-15.235 0-28.187-5.336-38.856-15.998s-16-23.615-16-38.856v-91.433h-201.145c-25.142 0-46.67-8.949-64.575-26.856-17.907-17.905-26.856-39.421-26.856-64.565v-219.432h1023.998v219.432c0 25.144-8.943 46.66-26.856 64.565zM658.288 740.568h-292.571v73.147h292.571v-73.147z" />
<glyph unicode="&#xe90f;" glyph-name="briefcase-2" d="M267.341 511.197v-31.772h456.911v31.772h118.278v-31.772h78c51.594 0 94.556 37.347 103.467 86.405v187.638h-341.327v82.531c0 10.729-8.708 19.443-19.443 19.443h-300.278c-10.736 0-19.443-8.714-19.443-19.443v-82.531h-343.505v-204.385c14.633-40.557 53.393-69.669 98.935-69.669h50.127v31.772l118.278 0.011zM382.393 816.57h261.391v-63.088h-261.391v63.088zM842.531 371.849v81.653h78c42.052 0 79.443 19.974 103.467 50.84v-463.783h-1023.998v458.258c24.069-27.697 59.456-45.315 98.935-45.315h50.127v-81.653h118.278v81.653h456.911v-81.653h118.28z" />
<glyph unicode="&#xe910;" glyph-name="building" d="M908.296-30.942v990.942h-792.592v-990.942h-115.704v-33.058h1024v33.058h-115.704zM610.973-30.942h-198.148v330.381h198.148v-330.381zM875.238-30.942h-231.206v363.238h-264.063v-363.439h-231.408v958.085h726.677v-957.883zM198.148 183.937v-132.233h132.031v132.233h-132.031zM297.323 84.561h-66.117v66.117h66.117v-66.117zM693.619 183.937v-132.233h132.031v132.233h-132.031zM792.794 84.561h-66.117v66.117h66.117v-66.117zM198.148 877.354v-132.031h132.031v132.031h-132.031zM297.323 778.18h-66.117v66.117h66.117v-66.117zM445.883 877.354v-132.031h132.031v132.031h-132.031zM545.058 778.18h-66.117v66.117h66.117v-66.117zM693.619 877.354v-132.031h132.031v132.031h-132.031zM792.794 778.18h-66.117v66.117h66.117v-66.117zM198.148 695.937v-132.233h132.031v132.233h-132.031zM297.323 596.561h-66.117v66.117h66.117v-66.117zM445.883 695.937v-132.233h132.031v132.233h-132.031zM545.058 596.561h-66.117v66.117h66.117v-66.117zM693.619 695.937v-132.233h132.031v132.233h-132.031zM792.794 596.561h-66.117v66.117h66.117v-66.117zM198.148 514.117v-132.233h132.031v132.233h-132.031zM297.323 414.942h-66.117v66.117h66.117v-66.117zM445.883 514.117v-132.233h132.031v132.233h-132.031zM545.058 414.942h-66.117v66.117h66.117v-66.117zM693.619 514.117v-132.233h132.031v132.233h-132.031zM792.794 414.942h-66.117v66.117h66.117v-66.117z" />
<glyph unicode="&#xe911;" glyph-name="calendar" d="M757.389 880.552c-8.21 40.236-43.855 70.621-86.493 70.621-9.763 0-17.655-7.892-17.655-17.655s7.892-17.655 17.655-17.655c29.202 0 52.966-23.764 52.966-52.966s-23.764-52.966-52.966-52.966c-9.763 0-17.655-7.892-17.655-17.655s7.892-17.655 17.655-17.655c42.62 0 78.283 30.385 86.493 70.621h231.3v-158.897h-953.379v158.897h300.138c9.763 0 17.655 7.892 17.655 17.655s-7.892 17.655-17.655 17.655h-32.062c7.309 20.515 26.73 35.31 49.717 35.31 29.202 0 52.966-23.764 52.966-52.966s-23.764-52.966-52.966-52.966c-9.763 0-17.655-7.892-17.655-17.655s7.892-17.655 17.655-17.655c48.675 0 88.276 39.601 88.276 88.276s-39.601 88.276-88.276 88.276c-42.62 0-78.283-30.385-86.493-70.621h-266.611v-935.724h1024v935.724h-266.611zM988.69-19.862h-953.379v670.897h953.379v-670.897zM459.034 915.862c29.202 0 52.966-23.764 52.966-52.966s-23.764-52.966-52.966-52.966c-9.763 0-17.655-7.892-17.655-17.655s7.892-17.655 17.655-17.655c48.675 0 88.276 39.601 88.276 88.276s-39.601 88.276-88.276 88.276c-9.763 0-17.655-7.892-17.655-17.655s7.892-17.655 17.655-17.655zM564.966 915.862c29.202 0 52.966-23.764 52.966-52.966s-23.764-52.966-52.966-52.966c-9.763 0-17.655-7.892-17.655-17.655s7.892-17.655 17.655-17.655c48.675 0 88.276 39.601 88.276 88.276s-39.601 88.276-88.276 88.276c-9.763 0-17.655-7.892-17.655-17.655s7.892-17.655 17.655-17.655zM406.069 527.448c0-9.751-7.904-17.655-17.655-17.655s-17.655 7.904-17.655 17.655c0 9.751 7.904 17.655 17.655 17.655s17.655-7.904 17.655-17.655zM529.655 527.448c0-9.751-7.904-17.655-17.655-17.655s-17.655 7.904-17.655 17.655c0 9.751 7.904 17.655 17.655 17.655s17.655-7.904 17.655-17.655zM653.241 527.448c0-9.751-7.904-17.655-17.655-17.655s-17.655 7.904-17.655 17.655c0 9.751 7.904 17.655 17.655 17.655s17.655-7.904 17.655-17.655zM776.828 527.448c0-9.751-7.904-17.655-17.655-17.655s-17.655 7.904-17.655 17.655c0 9.751 7.904 17.655 17.655 17.655s17.655-7.904 17.655-17.655zM900.414 527.448c0-9.751-7.904-17.655-17.655-17.655s-17.655 7.904-17.655 17.655c0 9.751 7.904 17.655 17.655 17.655s17.655-7.904 17.655-17.655zM158.897 386.207c0-9.751-7.904-17.655-17.655-17.655s-17.655 7.904-17.655 17.655c0 9.751 7.904 17.655 17.655 17.655s17.655-7.904 17.655-17.655zM282.483 386.207c0-9.751-7.904-17.655-17.655-17.655s-17.655 7.904-17.655 17.655c0 9.751 7.904 17.655 17.655 17.655s17.655-7.904 17.655-17.655zM406.069 386.207c0-9.751-7.904-17.655-17.655-17.655s-17.655 7.904-17.655 17.655c0 9.751 7.904 17.655 17.655 17.655s17.655-7.904 17.655-17.655zM529.655 386.207c0-9.751-7.904-17.655-17.655-17.655s-17.655 7.904-17.655 17.655c0 9.751 7.904 17.655 17.655 17.655s17.655-7.904 17.655-17.655zM653.241 386.207c0-9.751-7.904-17.655-17.655-17.655s-17.655 7.904-17.655 17.655c0 9.751 7.904 17.655 17.655 17.655s17.655-7.904 17.655-17.655zM776.828 386.207c0-9.751-7.904-17.655-17.655-17.655s-17.655 7.904-17.655 17.655c0 9.751 7.904 17.655 17.655 17.655s17.655-7.904 17.655-17.655zM900.414 386.207c0-9.751-7.904-17.655-17.655-17.655s-17.655 7.904-17.655 17.655c0 9.751 7.904 17.655 17.655 17.655s17.655-7.904 17.655-17.655zM158.897 262.621c0-9.751-7.904-17.655-17.655-17.655s-17.655 7.904-17.655 17.655c0 9.751 7.904 17.655 17.655 17.655s17.655-7.904 17.655-17.655zM282.483 262.621c0-9.751-7.904-17.655-17.655-17.655s-17.655 7.904-17.655 17.655c0 9.751 7.904 17.655 17.655 17.655s17.655-7.904 17.655-17.655zM406.069 262.621c0-9.751-7.904-17.655-17.655-17.655s-17.655 7.904-17.655 17.655c0 9.751 7.904 17.655 17.655 17.655s17.655-7.904 17.655-17.655zM529.655 262.621c0-9.751-7.904-17.655-17.655-17.655s-17.655 7.904-17.655 17.655c0 9.751 7.904 17.655 17.655 17.655s17.655-7.904 17.655-17.655zM653.241 262.621c0-9.751-7.904-17.655-17.655-17.655s-17.655 7.904-17.655 17.655c0 9.751 7.904 17.655 17.655 17.655s17.655-7.904 17.655-17.655zM776.828 262.621c0-9.751-7.904-17.655-17.655-17.655s-17.655 7.904-17.655 17.655c0 9.751 7.904 17.655 17.655 17.655s17.655-7.904 17.655-17.655zM900.414 262.621c0-9.751-7.904-17.655-17.655-17.655s-17.655 7.904-17.655 17.655c0 9.751 7.904 17.655 17.655 17.655s17.655-7.904 17.655-17.655zM158.897 121.379c0-9.751-7.904-17.655-17.655-17.655s-17.655 7.904-17.655 17.655c0 9.751 7.904 17.655 17.655 17.655s17.655-7.904 17.655-17.655zM282.483 121.379c0-9.751-7.904-17.655-17.655-17.655s-17.655 7.904-17.655 17.655c0 9.751 7.904 17.655 17.655 17.655s17.655-7.904 17.655-17.655zM406.069 121.379c0-9.751-7.904-17.655-17.655-17.655s-17.655 7.904-17.655 17.655c0 9.751 7.904 17.655 17.655 17.655s17.655-7.904 17.655-17.655zM529.655 121.379c0-9.751-7.904-17.655-17.655-17.655s-17.655 7.904-17.655 17.655c0 9.751 7.904 17.655 17.655 17.655s17.655-7.904 17.655-17.655zM653.241 121.379c0-9.751-7.904-17.655-17.655-17.655s-17.655 7.904-17.655 17.655c0 9.751 7.904 17.655 17.655 17.655s17.655-7.904 17.655-17.655z" />
<glyph unicode="&#xe912;" glyph-name="calendar-2" d="M965.716 791.996c-14.46 14.476-31.617 21.716-51.425 21.716h-73.134v54.859c0 25.138-8.96 46.663-26.863 64.568-17.913 17.905-39.426 26.861-64.576 26.861h-36.562c-25.148 0-46.669-8.956-64.574-26.863-17.911-17.903-26.863-39.43-26.863-64.568v-54.859h-219.417v54.859c0 25.138-8.956 46.663-26.863 64.568-17.903 17.907-39.426 26.863-64.574 26.863h-36.568c-25.142 0-46.667-8.956-64.574-26.863-17.903-17.903-26.861-39.43-26.861-64.568v-54.859h-73.136c-19.814 0-36.954-7.239-51.431-21.716-14.476-14.474-21.716-31.623-21.716-51.431v-731.429c0-19.794 7.239-36.938 21.716-51.423 14.474-14.472 31.615-21.714 51.431-21.714h804.553c19.808 0 36.966 7.239 51.425 21.714 14.478 14.478 21.72 31.631 21.72 51.423v731.431c-0.002 19.814-7.235 36.954-21.706 51.431zM274.29 9.144h-164.566v164.578h164.566v-164.578zM274.29 210.284h-164.566v182.847h164.566v-182.847zM274.29 429.719h-164.566v164.564h164.566v-164.564zM261.441 691.142c-3.621 3.621-5.428 7.898-5.428 12.855v164.566c0 4.952 1.807 9.241 5.428 12.855 3.621 3.621 7.898 5.428 12.855 5.428h36.568c4.952 0 9.241-1.807 12.855-5.428 3.621-3.617 5.432-7.904 5.432-12.855v-164.566c0-4.96-1.819-9.237-5.432-12.855-3.617-3.621-7.898-5.428-12.855-5.428h-36.568c-4.952-0.002-9.235 1.807-12.855 5.428zM493.719 9.144h-182.861v164.578h182.861v-164.578zM493.719 210.284h-182.861v182.847h182.861v-182.847zM493.719 429.719h-182.861v164.564h182.861v-164.564zM713.156 9.144h-182.859v164.578h182.859v-164.578zM713.156 210.284h-182.859v182.847h182.859v-182.847zM713.156 429.719h-182.859v164.564h182.859v-164.564zM700.293 691.142c-3.617 3.621-5.418 7.898-5.418 12.855v164.566c0 4.952 1.801 9.241 5.418 12.855 3.619 3.621 7.904 5.428 12.863 5.428h36.562c4.96 0 9.241-1.807 12.863-5.428 3.619-3.617 5.418-7.904 5.418-12.855v-164.566c0-4.96-1.807-9.237-5.418-12.855-3.617-3.621-7.904-5.428-12.863-5.428h-36.562c-4.958-0.002-9.259 1.807-12.863 5.428zM914.278 9.144h-164.574v164.578h164.574v-164.578zM914.278 210.284h-164.574v182.847h164.574v-182.847zM914.278 429.719h-164.574v164.564h164.574v-164.564z" />
<glyph unicode="&#xe913;" glyph-name="camera-2" d="M972.711 715.010h-214.602l-7.255 51.277-5.565 34.57c-2.247 13.926-9.621 25.473-21.191 35.117-11.845 9.87-24.521 15.044-38.459 15.044h-348.945c-13.938 0-26.756-5.006-38.47-15.044-11.702-10.038-17.922-21.81-20.062-35.117l-5.577-34.57-7.802-51.277h-213.494c-28.434 0-51.29-22.858-51.29-50.173v-568.574c0-28.421 22.856-51.277 51.29-51.277h921.421c28.433 0 51.289 22.856 51.289 51.277v568.574c0 27.315-22.856 50.173-51.289 50.173zM962.127 106.856h-900.8v546.839h203.458c30.658 0 57.13 22.809 61.315 52.395l7.243 51.277 5.577 31.776h345.602l5.020-31.776 7.8-51.277c4.496-29.539 31.215-52.395 60.767-52.395h204.017v-546.839zM862.901 508.209c26.756 0 49.053 22.844 49.053 49.6 0 27.317-21.738 50.173-49.053 50.173s-49.053-22.856-49.053-50.173c-0.002-26.756 22.297-49.6 49.053-49.6zM511.162 637.522c-62.979 0-117.611-22.844-162.764-67.997s-68.009-99.785-68.009-162.778c0-62.979 22.856-117.611 68.009-162.764s99.785-66.511 162.764-67.45c124.878-1.844 232.249 106.458 230.775 230.216-0.75 63.55-22.856 117.623-67.999 162.778-45.153 45.151-99.226 67.996-162.776 67.996zM630.449 286.901c-32.88-32.88-72.458-49.043-119.288-49.043-46.259 0-85.835 16.161-118.729 49.043-32.893 32.893-49.053 73.029-49.053 119.846 0 46.271 16.161 86.408 49.053 119.299 32.893 32.882 72.47 49.602 118.729 49.602 46.83 0 86.408-16.72 119.288-49.602 32.892-32.893 49.612-73.029 49.612-119.299 0-46.82-16.72-86.953-49.612-119.846z" />
<glyph unicode="&#xe914;" glyph-name="camera-3" d="M964.502 783.448h-905.004c-32.803 0-59.498-26.695-59.498-59.498v-622.521c0-32.803 26.695-59.498 59.498-59.498h905.004c32.803 0 59.498 26.695 59.498 59.498v622.521c0 32.803-26.695 59.498-59.498 59.498zM988.69 101.429c0-13.347-10.84-24.188-24.188-24.188h-905.004c-13.347 0-24.188 10.84-24.188 24.188v622.521c0 13.347 10.84 24.188 24.188 24.188h905.004c13.347 0 24.188-10.84 24.188-24.188v-622.521zM529.655 712.828c-165.5 0-300.138-134.638-300.138-300.138s134.638-300.138 300.138-300.138 300.138 134.638 300.138 300.138-134.638 300.138-300.138 300.138zM529.655 147.862c-146.026 0-264.828 118.802-264.828 264.828s118.802 264.828 264.828 264.828 264.828-118.802 264.828-264.828-118.802-264.828-264.828-264.828zM353.103 818.759h335.448c9.763 0 17.655 7.892 17.655 17.655s-7.892 17.655-17.655 17.655h-335.448c-9.763 0-17.655-7.892-17.655-17.655s7.892-17.655 17.655-17.655z" />
<glyph unicode="&#xe915;" glyph-name="car" d="M960.53 569.15c-0.69 0.794-1.275 1.567-2.090 2.341l-35.883 34.629c29.76 6.75 61.798 31.683 61.798 57.263 0 29.802-41.359 40.377-76.657 40.377-36.907 0-41.192-25.288-41.63-43.156l-92.582 89.259c-18.809 18.621-54.483 33.271-81.15 33.271h-360.713c-26.646 0-62.299-14.65-81.129-33.271l-92.561-89.259c-0.481 17.868-4.765 43.156-41.63 43.156-35.34 0-76.678-10.575-76.678-40.377 0-25.58 32.059-50.512 61.819-57.263l-35.883-34.629c-0.815-0.773-1.379-1.547-2.090-2.341-38.391-32.811-63.47-93.668-63.47-137.828v-131.224c0-31.85 12.56-60.753 32.853-82.3v-50.889c0-29.76 24.911-54.023 55.549-54.023h67.169c30.638 0 55.528 24.222 55.528 54.023v13.020h601.781v-13.020c0-29.802 24.87-54.023 55.549-54.023h67.148c30.659 0 55.528 24.264 55.528 54.023v50.889c20.314 21.547 32.853 50.45 32.853 82.3v131.224c0.042 44.159-25.037 105.017-63.428 137.828zM284.496 710.196c13.020 10.846 35.779 19.081 47.127 19.081h360.755c11.348 0 34.107-8.234 47.127-19.081l121.401-117.66h-697.79l121.38 117.66zM41.651 451.177c0 32.31 25.288 58.538 56.51 58.538 31.202 0 133.167-59.854 133.167-92.164s-101.965-24.828-133.167-24.828c-31.223 0-56.51 26.124-56.51 58.454zM211.12 237.465h-21.526l-63.846-0.104c-17.722 5.517-30.22 11.954-39.060 18.872-4.472 3.49-7.9 7.126-10.575 10.742-2.696 3.657-4.66 7.252-5.935 10.846-7.942 22.445 8.464 43.072 8.464 43.072h108.966l72.644-83.386-49.133-0.042zM668.678 237.424h-313.357c-32.665 0-59.185 26.521-59.185 59.165h431.728c0-32.686-26.521-59.165-59.185-59.165zM682.43 336.965h-340.86c-35.528 0-64.368 43.804-64.368 97.827h469.596c0-54.044-28.84-97.827-64.368-97.827zM953.843 277.779c-1.296-3.595-3.26-7.189-5.956-10.826-2.654-3.615-6.082-7.252-10.575-10.742-8.819-6.918-21.338-13.396-39.060-18.872l-134.547 0.104 72.686 83.386h108.946c0 0.021 16.426-20.564 8.506-43.052zM925.838 392.723c-31.181 0-133.146-7.44-133.146 24.828s101.965 92.164 133.146 92.164c31.223 0 56.51-26.228 56.51-58.538 0-32.289-25.288-58.454-56.51-58.454z" />
<glyph unicode="&#xe916;" d="M847.448 608.15v-373.248c0-48.075-38.965-87.040-87.022-87.040h-372.012l-176.552-194.207v194.207h-124.84c-48.057 0-87.022 38.965-87.022 87.022v373.248c0 48.075 38.965 87.040 87.022 87.040h673.386c48.075 0 87.040-38.965 87.040-87.022z" />
<glyph unicode="&#xe917;" d="M936.978 942.345h-673.404c-48.057 0-87.022-38.965-87.022-87.040v-160.132h583.874c48.057 0 87.022-38.965 87.022-87.040v-213.098h89.529c48.057 0 87.022 38.965 87.022 87.040v373.23c0 48.075-38.965 87.040-87.022 87.040z" />
<glyph unicode="&#xe918;" d="M441.379 500.701h-247.172c-9.763 0-17.655 7.91-17.655 17.655s7.892 17.655 17.655 17.655h247.172c9.763 0 17.655-7.91 17.655-17.655s-7.892-17.655-17.655-17.655z" />
<glyph unicode="&#xe919;" d="M670.897 394.77h-476.69c-9.763 0-17.655 7.91-17.655 17.655s7.892 17.655 17.655 17.655h476.69c9.763 0 17.655-7.91 17.655-17.655s-7.892-17.655-17.655-17.655z" />
<glyph unicode="&#xe91a;" d="M670.897 288.839h-476.69c-9.763 0-17.655 7.91-17.655 17.655s7.892 17.655 17.655 17.655h476.69c9.763 0 17.655-7.91 17.655-17.655s-7.892-17.655-17.655-17.655z" />
<glyph unicode="&#xe91b;" glyph-name="clock" d="M512 960c-282.317 0-512-229.683-512-512s229.683-512 512-512 512 229.683 512 512-229.683 512-512 512zM512-29.867c-263.492 0-477.867 214.374-477.867 477.867s214.374 477.867 477.867 477.867 477.867-214.374 477.867-477.867-214.374-477.867-477.867-477.867zM529.067 515.908v173.090c0 9.438-7.646 17.067-17.067 17.067s-17.067-7.629-17.067-17.067v-173.090c-23.876-6.212-42.564-24.9-48.777-48.777h-121.89c-9.421 0-17.067-7.629-17.067-17.067s7.646-17.067 17.067-17.067h121.89c7.629-29.355 34.133-51.2 65.843-51.2 37.649 0 68.267 30.618 68.267 68.267 0 31.727-21.845 58.214-51.2 65.843zM512 415.932c-18.825 0-34.133 15.309-34.133 34.133s15.309 34.133 34.133 34.133 34.133-15.309 34.133-34.133-15.309-34.133-34.133-34.133zM512 791.398c9.421 0 17.067 7.629 17.067 17.067v17.067c0 9.438-7.646 17.067-17.067 17.067s-17.067-7.629-17.067-17.067v-17.067c0-9.438 7.646-17.067 17.067-17.067zM512 108.732c-9.421 0-17.067-7.629-17.067-17.067v-17.067c0-9.438 7.646-17.067 17.067-17.067s17.067 7.629 17.067 17.067v17.067c0 9.438-7.646 17.067-17.067 17.067zM887.467 467.132h-17.067c-9.421 0-17.067-7.629-17.067-17.067s7.646-17.067 17.067-17.067h17.067c9.421 0 17.067 7.629 17.067 17.067s-7.646 17.067-17.067 17.067zM153.6 467.132h-17.067c-9.421 0-17.067-7.629-17.067-17.067s7.646-17.067 17.067-17.067h17.067c9.421 0 17.067 7.629 17.067 17.067s-7.646 17.067-17.067 17.067zM765.423 727.637l-12.066-12.066c-6.673-6.673-6.673-17.459 0-24.132 3.328-3.328 7.697-5.001 12.066-5.001s8.738 1.673 12.066 5.001l12.066 12.066c6.673 6.673 6.673 17.459 0 24.132s-17.459 6.656-24.132 0zM246.511 208.708l-12.066-12.066c-6.673-6.673-6.673-17.459 0-24.132 3.328-3.328 7.697-5.001 12.066-5.001s8.738 1.673 12.066 5.001l12.066 12.066c6.673 6.673 6.673 17.459 0 24.132s-17.476 6.656-24.132 0zM777.489 208.708c-6.673 6.673-17.459 6.673-24.132 0s-6.673-17.459 0-24.132l12.066-12.066c3.328-3.328 7.697-5.001 12.066-5.001s8.738 1.673 12.066 5.001c6.673 6.673 6.673 17.459 0 24.132l-12.066 12.066zM258.577 727.637c-6.673 6.673-17.459 6.673-24.132 0s-6.673-17.459 0-24.132l12.066-12.066c3.328-3.328 7.697-5.001 12.066-5.001s8.738 1.673 12.066 5.001c6.673 6.673 6.673 17.459 0 24.132l-12.066 12.066z" />
<glyph unicode="&#xe91c;" glyph-name="clock-2" d="M512 960c-282.317 0-512-229.683-512-512s229.683-512 512-512 512 229.683 512 512-229.683 512-512 512zM512 44.945c-222.243 0-403.066 180.802-403.066 403.055s180.823 403.055 403.066 403.055 403.066-180.802 403.066-403.055-180.823-403.055-403.066-403.055zM778.834 463.809h-230.094v276.657c0 23.281-18.876 42.157-42.157 42.157s-42.157-18.876-42.157-42.157v-318.814c0-23.281 18.876-42.157 42.157-42.157h272.252c23.281 0 42.157 18.876 42.157 42.157s-18.876 42.157-42.157 42.157z" />
<glyph unicode="&#xe91d;" glyph-name="construction" d="M765.095-10.911c0 299.761 0 635.737 0 934.662-168.717 48.333-337.472 48.333-506.187 0 0-298.925 0-634.9 0-934.662h-40.745v-53.089h587.675v53.089h-40.743zM348.415 796.522h327.169v-46.917h-327.169v46.917zM348.415 673.060h327.169v-46.914h-327.169v46.914zM348.415 549.598h327.169v-46.914h-327.169v46.914zM348.415 426.137h327.169v-46.914h-327.169v46.914zM348.415 302.678h327.169v-46.917h-327.169v46.917zM348.415 179.219h327.169v-46.919h-327.169v46.919zM297.961-10.911c41.182 9.977 82.365 17.079 123.55 21.297v57.718h180.977v-57.718c41.185-4.217 82.368-11.32 123.55-21.297h-428.078z" />
<glyph unicode="&#xe91e;" glyph-name="cup" d="M130.263-19.571h139.432c1.938-12.147 12.005-21.647 24.72-21.647h317.008c12.762 0 22.782 9.453 24.72 21.647h139.432c23.585 0 42.68 19.095 42.68 42.68h-730.625c0-23.585 19.095-42.68 42.633-42.68zM986.188 419.097c-35.543 28.784-85.597 29.257-118.541 25.618 0.945 22.971 1.465 46.462 1.465 70.898h-869.112c0-234.908 35.543-404.401 260.478-467.642h348.155c89.095 25.003 148.176 67.022 187.359 122.889 85.361 1.654 222.666 35.26 227.818 153.139 2.221 51.614-19.237 80.256-37.623 95.098zM831.773 238.261c16.354 42.019 26.043 89.284 31.384 141.228 23.065 3.781 62.815 6.192 82.903-10.162 3.687-3.025 15.172-12.383 13.849-42.586-2.694-61.067-78.507-81.58-128.136-88.48zM354.063 548.604c0 0 165.428 12.147 89.615 151.627-60.878 111.971-46.982 177.67 30.911 237.035 0 0-255.137-64.99-106.347-266.103 54.591-87.63-14.18-122.559-14.18-122.559zM465.562 559.759c0 0 132.532 27.934 60.405 134.517-26.185 46.225 9.926 62.721 9.926 62.721s-85.314-2.694-49.298-76.002c28.832-58.94 20.277-92.403-21.033-121.235z" />
<glyph unicode="&#xe91f;" glyph-name="exchange" d="M972.8 755.2h-563.2v102.4c0 20.702-12.476 39.372-31.608 47.308-6.332 2.612-12.988 3.892-19.576 3.892-13.33 0-26.42-5.206-36.216-15.002l-307.2-307.2c-14.644-14.644-19.030-36.66-11.094-55.79 7.922-19.132 26.592-31.608 47.294-31.608h921.6c28.28 0 51.2 22.92 51.2 51.2v153.6c0 28.28-22.92 51.2-51.2 51.2zM972.8 550.4h-921.6l307.2 307.2v-153.6h614.4v-153.6zM1020.092 365.192c-7.918 19.132-26.59 31.608-47.292 31.608h-921.6c-28.28 0-51.2-22.92-51.2-51.2v-153.6c0-28.28 22.92-51.2 51.2-51.2h563.2v-102.4c0-20.702 12.476-39.372 31.608-47.308 6.332-2.612 12.988-3.892 19.576-3.892 13.328 0 26.42 5.206 36.216 15.002l307.2 307.2c14.642 14.642 19.028 36.658 11.092 55.79zM665.6 38.4v153.6h-614.4v153.6h921.6l-307.2-307.2z" />
<glyph unicode="&#xe920;" glyph-name="exchange-1" d="M745.287 470.56l45.119-45.119 223.994 223.994c12.408 12.482 12.408 32.637 0 45.119l-223.994 223.994-45.119-45.439 169.596-169.276h-914.857v-63.998h914.857l-169.596-169.276zM1024 255.846h-914.857l169.596 169.276-45.439 45.439-223.994-223.994c-12.408-12.482-12.408-32.637 0-45.119l223.994-223.994 45.119 45.119-169.276 169.276h914.857v63.998z" />
<glyph unicode="&#xe921;" glyph-name="facebook" d="M592.618-64h-220.355v459.122h-121.39v210.854h121.386v118.402c0 108.699 68.006 235.623 259.75 235.623 67.595 0 117.218-6.335 119.291-6.608l20.345-2.645-4.899-197.323-22.418 0.206c-0.046 0-50.42 0.479-105.37 0.479-40.895 0-46.318-10.092-46.318-50.236v-97.944h180.484l-10-210.854h-170.463v-459.076h-0.043zM417.802-18.433h129.224v459.097h172.558l5.697 119.745h-178.255v143.511c0 47.389 10.911 95.802 91.882 95.802 32.536 0 63.451-0.16 83.338-0.319l2.758 110.929c-20.118 1.801-53.586 4.102-93.045 4.102-157.907 0-214.183-98.171-214.183-190.056v-163.968h-121.383v-119.745h121.386v-459.097h0.021z" />
<glyph unicode="&#xe922;" glyph-name="facebook-2" d="M767.965 959.787l-132.79 0.213c-149.185 0-245.595-98.913-245.595-252.008v-116.192h-133.514c-11.537 0-20.88-9.353-20.88-20.891v-168.35c0-11.537 9.353-20.88 20.88-20.88h133.514v-424.8c0-11.537 9.343-20.88 20.88-20.88h174.198c11.537 0 20.88 9.353 20.88 20.88v424.8h156.109c11.537 0 20.88 9.343 20.88 20.88l0.064 168.35c0 5.54-2.205 10.845-6.115 14.765s-9.236 6.125-14.776 6.125h-156.163v98.498c0 47.342 11.282 71.375 72.952 71.375l89.453 0.032c11.527 0 20.869 9.353 20.869 20.88v156.322c0 11.516-9.332 20.859-20.848 20.88z" />
<glyph unicode="&#xe923;" d="M281.6 430.933h170.667v-102.4h-170.667v102.4z" />
<glyph unicode="&#xe924;" d="M59.733 960c-9.421 0-17.067-7.629-17.067-17.067v-989.867c0-9.438 7.646-17.067 17.067-17.067s17.067 7.629 17.067 17.067v989.867c0 9.438-7.646 17.067-17.067 17.067z" />
<glyph unicode="&#xe925;" d="M76.8 891.733h375.467v-494.933h-375.467v494.933z" />
<glyph unicode="&#xe926;" d="M452.267 806.4v-409.6h-102.4c-37.7 0-68.267-30.566-68.267-68.267s30.566-68.267 68.267-68.267h631.467l-187.733 273.067 187.733 273.067h-529.067z" />
<glyph unicode="&#xe927;" d="M281.6 328.533c0-37.7 30.566-68.267 68.267-68.267h102.4v136.533h-102.4c-37.7 0-68.267-30.566-68.267-68.267z" />
<glyph unicode="&#xe928;" glyph-name="flag-1" d="M876.732 906.308c-3.465 1.382-86.357 34.082-184.576 34.082-58.607 0-110.421-11.725-154.010-34.85-38.622-20.497-91.017-30.874-155.733-30.874-90.59 0-179.917 20.685-211.746 28.894v39.373c0 9.438-7.629 17.067-17.067 17.067s-17.067-7.629-17.067-17.067v-51.2c0-0.239 0.119-0.444 0.137-0.683 0-0.205-0.137-0.375-0.137-0.58v-937.404c0-9.438 7.629-17.067 17.067-17.067s17.067 7.629 17.067 17.067v403.234c38.793-9.626 123.614-27.767 211.746-27.767 70.349 0 128.119 11.742 171.725 34.85 38.622 20.497 85.043 30.891 138.018 30.891 91.426 0 171.127-31.334 171.913-31.642 5.274-2.116 11.213-1.468 15.906 1.741 4.676 3.14 7.492 8.431 7.492 14.097v512c0 6.98-4.25 13.244-10.735 15.838z" />
<glyph unicode="&#xe929;" d="M484.5 448c0-133.791-108.459-242.25-242.25-242.25s-242.25 108.459-242.25 242.25c0 133.791 108.459 242.25 242.25 242.25s242.25-108.459 242.25-242.25z" />
<glyph unicode="&#xe92a;" d="M1024 448c0-133.791-108.459-242.25-242.25-242.25s-242.25 108.459-242.25 242.25c0 133.791 108.459 242.25 242.25 242.25s242.25-108.459 242.25-242.25z" />
<glyph unicode="&#xe92b;" glyph-name="flickr-1" d="M241.848 689.85c-133.354 0-241.848-108.496-241.848-241.85s108.494-241.85 241.848-241.85c133.356 0 241.85 108.494 241.85 241.85s-108.496 241.85-241.85 241.85zM241.848 246.948c-110.86 0-201.050 90.192-201.050 201.052 0 110.862 90.192 201.050 201.050 201.050 110.862 0 201.052-90.19 201.052-201.050 0-110.862-90.194-201.052-201.052-201.052zM782.152 689.85c-133.356 0-241.85-108.494-241.85-241.85s108.492-241.85 241.85-241.85c133.354 0 241.848 108.496 241.848 241.85s-108.49 241.85-241.848 241.85zM782.152 246.946c-110.862 0-201.052 90.192-201.052 201.052 0 110.862 90.192 201.052 201.052 201.052s201.050-90.19 201.050-201.050-90.188-201.054-201.050-201.054zM241.848 616.416c-5.060 0-10.174-0.228-15.204-0.678-11.22-1.006-19.502-10.916-18.5-22.136 0.95-10.602 9.85-18.58 20.294-18.58 0.608 0 1.222 0.026 1.84 0.082 3.824 0.342 7.716 0.516 11.568 0.516 11.266 0 20.398 9.132 20.398 20.398s-9.13 20.398-20.396 20.398zM178.24 583.238c-6.152 9.438-18.788 12.102-28.228 5.954-47.95-31.244-76.578-84.028-76.578-141.192 0-11.266 9.132-20.398 20.398-20.398s20.398 9.132 20.398 20.398c0 43.32 21.702 83.326 58.054 107.010 9.44 6.15 12.106 18.788 5.956 28.228z" />
<glyph unicode="&#xe92c;" glyph-name="football" d="M1023.847 460.135c-0.031 1.273-0.079 2.543-0.119 3.814-0.086 2.794-0.188 5.582-0.316 8.365-0.069 1.438-0.142 2.876-0.222 4.311-0.148 2.702-0.322 5.398-0.512 8.090-0.096 1.352-0.186 2.704-0.295 4.054-0.253 3.239-0.543 6.466-0.859 9.686-0.071 0.742-0.132 1.488-0.207 2.23-0.401 3.927-0.853 7.839-1.344 11.74-0.142 1.154-0.309 2.301-0.462 3.452-0.37 2.779-0.75 5.553-1.166 8.317-0.213 1.425-0.437 2.846-0.66 4.267-0.399 2.541-0.821 5.076-1.26 7.605-0.245 1.413-0.489 2.827-0.744 4.236-0.502 2.756-1.034 5.502-1.58 8.244-0.219 1.108-0.426 2.219-0.654 3.323-0.775 3.762-1.59 7.509-2.447 11.239-0.23 1.009-0.485 2.012-0.723 3.018-0.656 2.773-1.325 5.538-2.023 8.292-0.362 1.419-0.738 2.834-1.11 4.249-0.623 2.368-1.26 4.731-1.916 7.084-0.408 1.461-0.819 2.919-1.237 4.376-0.696 2.416-1.417 4.819-2.148 7.22-0.397 1.31-0.788 2.625-1.195 3.929-1.118 3.571-2.267 7.13-3.463 10.666-0.259 0.769-0.539 1.53-0.802 2.301-0.978 2.846-1.971 5.686-2.999 8.512-0.51 1.402-1.037 2.796-1.557 4.194-0.821 2.198-1.651 4.391-2.501 6.574-0.577 1.49-1.164 2.976-1.758 4.458-0.855 2.138-1.728 4.267-2.612 6.393-0.589 1.421-1.177 2.842-1.778 4.257-1.080 2.533-2.188 5.049-3.308 7.561-0.435 0.976-0.855 1.96-1.296 2.932-1.492 3.294-3.024 6.566-4.585 9.822-0.65 1.358-1.321 2.702-1.981 4.052-1.007 2.054-2.021 4.106-3.053 6.144-0.746 1.471-1.503 2.934-2.261 4.397-1.003 1.935-2.021 3.86-3.049 5.78-0.771 1.442-1.544 2.888-2.33 4.324-1.139 2.079-2.303 4.142-3.469 6.203-0.69 1.22-1.367 2.449-2.067 3.663-1.791 3.103-3.613 6.184-5.467 9.245-0.75 1.243-1.526 2.47-2.288 3.705-1.214 1.966-2.43 3.929-3.67 5.877-0.892 1.402-1.793 2.792-2.7 4.184-1.158 1.785-2.326 3.561-3.507 5.329-0.93 1.394-1.864 2.786-2.807 4.169-1.256 1.841-2.529 3.668-3.808 5.492-0.876 1.252-1.743 2.508-2.631 3.749-2.065 2.89-4.155 5.764-6.278 8.61v0c-55.917 74.944-131.874 134.042-219.922 169.403-0.004 0.002-0.008 0.002-0.013 0.004-3.502 1.406-7.028 2.771-10.568 4.102-0.255 0.096-0.506 0.194-0.759 0.288-3.356 1.256-6.733 2.47-10.123 3.657-0.456 0.159-0.911 0.322-1.367 0.481-3.233 1.122-6.483 2.207-9.745 3.264-0.629 0.205-1.258 0.412-1.887 0.614-3.122 0.999-6.261 1.964-9.41 2.907-0.794 0.236-1.586 0.474-2.378 0.706-3.018 0.886-6.050 1.743-9.091 2.575-0.949 0.261-1.9 0.518-2.853 0.773-2.915 0.777-5.839 1.534-8.775 2.261-1.101 0.274-2.209 0.541-3.314 0.809-2.817 0.679-5.638 1.34-8.474 1.971-1.248 0.278-2.497 0.545-3.747 0.817-2.723 0.585-5.446 1.156-8.184 1.699-1.396 0.276-2.796 0.539-4.196 0.805-2.616 0.495-5.237 0.982-7.868 1.438-1.549 0.27-3.105 0.518-4.66 0.773-2.508 0.412-5.018 0.817-7.538 1.191-1.707 0.255-3.423 0.481-5.135 0.719-2.395 0.33-4.79 0.665-7.197 0.961-1.87 0.232-3.751 0.433-5.628 0.644-2.274 0.255-4.545 0.518-6.829 0.744-2.058 0.205-4.127 0.37-6.194 0.55-2.125 0.184-4.244 0.382-6.378 0.541-2.305 0.171-4.625 0.299-6.938 0.439-1.916 0.117-3.826 0.253-5.749 0.349-2.706 0.134-5.427 0.217-8.142 0.309-1.553 0.052-3.101 0.132-4.66 0.169-4.29 0.109-8.589 0.165-12.902 0.165s-8.612-0.056-12.9-0.163c-1.561-0.040-3.11-0.117-4.667-0.169-2.715-0.092-5.431-0.176-8.136-0.309-1.927-0.094-3.841-0.232-5.759-0.349-2.309-0.14-4.625-0.27-6.928-0.439-2.136-0.159-4.261-0.357-6.391-0.541-2.061-0.178-4.127-0.345-6.18-0.55-2.29-0.226-4.568-0.491-6.848-0.746-1.87-0.211-3.743-0.41-5.607-0.642-2.414-0.299-4.815-0.633-7.218-0.963-1.705-0.236-3.415-0.464-5.114-0.715-2.529-0.376-5.045-0.784-7.561-1.195-1.544-0.253-3.093-0.499-4.635-0.767-2.642-0.458-5.268-0.947-7.895-1.442-1.39-0.265-2.779-0.525-4.165-0.798-2.746-0.545-5.484-1.118-8.215-1.705-1.239-0.265-2.476-0.533-3.711-0.809-2.846-0.635-5.686-1.298-8.514-1.979-1.089-0.263-2.18-0.529-3.266-0.798-2.953-0.734-5.893-1.492-8.827-2.276-0.932-0.249-1.866-0.502-2.796-0.757-3.059-0.836-6.108-1.699-9.147-2.591-0.771-0.226-1.54-0.458-2.307-0.688-3.176-0.947-6.336-1.923-9.483-2.93-0.602-0.192-1.202-0.389-1.801-0.585-3.294-1.068-6.574-2.163-9.837-3.296-0.418-0.144-0.834-0.295-1.254-0.441-3.429-1.2-6.844-2.43-10.24-3.701-0.203-0.075-0.403-0.155-0.604-0.23-92.708-34.829-172.642-95.744-230.826-173.842-2.038-2.736-4.048-5.49-6.031-8.267-0.936-1.312-1.856-2.642-2.779-3.962-1.227-1.753-2.451-3.507-3.657-5.275-0.974-1.427-1.933-2.861-2.892-4.297-1.147-1.72-2.284-3.448-3.413-5.183-0.93-1.436-1.862-2.867-2.779-4.311-1.195-1.879-2.368-3.772-3.538-5.668-0.805-1.302-1.618-2.593-2.41-3.902-1.839-3.041-3.649-6.098-5.427-9.18-0.727-1.26-1.432-2.535-2.146-3.801-1.143-2.017-2.28-4.035-3.394-6.069-0.798-1.459-1.582-2.926-2.368-4.393-1.014-1.891-2.017-3.791-3.005-5.699-0.771-1.482-1.536-2.968-2.295-4.46-1.020-2.012-2.019-4.037-3.011-6.065-0.673-1.373-1.354-2.74-2.017-4.121-1.538-3.21-3.049-6.434-4.52-9.68-0.468-1.032-0.915-2.075-1.377-3.11-1.11-2.493-2.211-4.99-3.281-7.504-0.606-1.421-1.191-2.848-1.785-4.274-0.882-2.119-1.753-4.244-2.606-6.376-0.594-1.486-1.179-2.974-1.762-4.466-0.846-2.182-1.676-4.37-2.495-6.566-0.522-1.4-1.051-2.796-1.563-4.205-1.022-2.819-2.015-5.651-2.99-8.491-0.265-0.775-0.548-1.542-0.809-2.318-1.195-3.538-2.345-7.097-3.463-10.668-0.408-1.304-0.798-2.614-1.195-3.923-0.731-2.399-1.45-4.804-2.146-7.218-0.42-1.457-0.832-2.917-1.239-4.382-0.656-2.357-1.296-4.721-1.918-7.091-0.372-1.411-0.746-2.817-1.103-4.232-0.702-2.765-1.375-5.54-2.033-8.322-0.234-1.001-0.485-1.994-0.717-2.995-0.857-3.734-1.672-7.484-2.447-11.247-0.228-1.099-0.433-2.207-0.654-3.308-0.548-2.746-1.078-5.494-1.582-8.257-0.255-1.409-0.499-2.821-0.746-4.232-0.439-2.533-0.859-5.072-1.26-7.617-0.224-1.417-0.447-2.832-0.658-4.253-0.414-2.773-0.798-5.555-1.168-8.342-0.15-1.143-0.316-2.282-0.46-3.429-0.489-3.902-0.94-7.816-1.344-11.745-0.075-0.742-0.134-1.488-0.207-2.23-0.316-3.22-0.606-6.447-0.859-9.686-0.109-1.348-0.199-2.702-0.295-4.054-0.19-2.692-0.364-5.387-0.512-8.090-0.079-1.436-0.153-2.873-0.222-4.311-0.127-2.782-0.23-5.571-0.316-8.365-0.040-1.271-0.088-2.539-0.119-3.814-0.094-4.033-0.153-8.077-0.153-12.133 0-3.63 0.056-7.247 0.136-10.859 0.036-1.626 0.077-3.252 0.127-4.873 0.044-1.394 0.102-2.782 0.157-4.171 3.519-91.997 31.303-177.764 77.145-251.097 0.006-0.008 0.010-0.017 0.015-0.025 8.687-13.893 18.018-27.337 27.959-40.293 0.052-0.071 0.109-0.142 0.163-0.213 9.837-12.808 20.261-25.138 31.24-36.95 0.255-0.274 0.51-0.548 0.765-0.821 2.088-2.234 4.19-4.455 6.315-6.652 0.088-0.092 0.178-0.182 0.265-0.274 6.606-6.817 13.4-13.45 20.371-19.893 0.222-0.205 0.441-0.412 0.665-0.616 2.065-1.902 4.148-3.78 6.244-5.647 0.575-0.514 1.154-1.026 1.73-1.538 2.050-1.808 4.106-3.603 6.184-5.377 0.479-0.412 0.968-0.817 1.448-1.227 6.629-5.626 13.404-11.084 20.319-16.374 0.69-0.529 1.377-1.064 2.071-1.588 1.973-1.494 3.962-2.968 5.96-4.432 0.942-0.694 1.887-1.381 2.834-2.069 1.956-1.415 3.914-2.821 5.889-4.209 0.926-0.65 1.862-1.291 2.794-1.937 6.568-4.549 13.247-8.949 20.031-13.195 1.143-0.715 2.28-1.434 3.427-2.138 1.883-1.158 3.778-2.297 5.676-3.429 1.279-0.765 2.564-1.523 3.851-2.276 1.87-1.093 3.743-2.182 5.626-3.254 1.331-0.754 2.667-1.494 4.004-2.238 6.56-3.651 13.203-7.158 19.935-10.524 1.484-0.742 2.963-1.486 4.455-2.213 1.843-0.901 3.699-1.783 5.553-2.66 1.523-0.721 3.053-1.436 4.585-2.14 1.856-0.855 3.707-1.705 5.576-2.537 1.574-0.702 3.156-1.386 4.738-2.073 1.847-0.802 3.688-1.613 5.546-2.395 0.004-0.002 0.008-0.004 0.015-0.006 60.964-25.619 127.918-39.786 198.186-39.786 69.323 0 135.41 13.805 195.707 38.77 0.004 0.002 0.010 0.004 0.015 0.006 3.101 1.285 6.186 2.604 9.258 3.948 0.311 0.136 0.625 0.274 0.936 0.41 3.005 1.323 5.998 2.671 8.976 4.050 0.253 0.117 0.506 0.236 0.759 0.353 15.655 7.281 30.881 15.329 45.631 24.097 0.309 0.184 0.621 0.366 0.93 0.552 2.642 1.578 5.264 3.181 7.874 4.804 0.539 0.334 1.078 0.671 1.613 1.007 2.535 1.59 5.055 3.197 7.561 4.832 0.516 0.339 1.030 0.679 1.546 1.020 2.575 1.693 5.141 3.398 7.684 5.135 0.102 0.071 0.205 0.142 0.309 0.213 8.24 5.64 16.307 11.519 24.194 17.619 0.408 0.316 0.821 0.625 1.229 0.942 2.125 1.655 4.232 3.337 6.328 5.024 0.851 0.683 1.703 1.365 2.552 2.054 1.944 1.584 3.872 3.183 5.791 4.794 0.976 0.817 1.948 1.638 2.915 2.464 1.845 1.572 3.682 3.151 5.505 4.748 1.005 0.88 2 1.772 2.997 2.66 1.793 1.597 3.584 3.189 5.352 4.811 0.93 0.853 1.847 1.72 2.771 2.579 3.812 3.542 7.576 7.139 11.279 10.794 0.516 0.508 1.041 1.005 1.553 1.517 1.482 1.473 2.934 2.972 4.397 4.464 1.214 1.239 2.433 2.472 3.634 3.724 1.373 1.429 2.729 2.876 4.083 4.32 1.271 1.354 2.539 2.71 3.795 4.077 1.291 1.406 2.573 2.823 3.851 4.244 1.308 1.457 2.606 2.922 3.897 4.393 1.204 1.373 2.407 2.748 3.601 4.136 1.377 1.605 2.74 3.222 4.096 4.844 1.080 1.287 2.167 2.568 3.233 3.868 1.701 2.071 3.375 4.165 5.045 6.263 0.696 0.876 1.409 1.739 2.098 2.619 2.301 2.93 4.564 5.889 6.8 8.869 0.821 1.091 1.62 2.201 2.428 3.298 1.475 2 2.947 4.002 4.393 6.023 0.89 1.241 1.764 2.493 2.644 3.745 1.348 1.916 2.683 3.841 4.006 5.778 0.874 1.283 1.743 2.57 2.606 3.862 1.319 1.971 2.621 3.954 3.912 5.945 0.811 1.248 1.622 2.493 2.42 3.749 1.388 2.18 2.75 4.376 4.106 6.579 0.662 1.076 1.337 2.144 1.992 3.225 1.96 3.235 3.887 6.491 5.776 9.772 0.033 0.054 0.065 0.109 0.096 0.161 0.002 0.002 0.002 0.006 0.004 0.008 40.045 69.649 64.138 149.619 67.402 234.926 0.054 1.39 0.113 2.777 0.157 4.171 0.048 1.624 0.092 3.248 0.127 4.873 0.079 3.611 0.136 7.229 0.136 10.859 0 4.058-0.059 8.102-0.153 12.138zM532.898 799.909l129.187 93.859c11.095-3.741 22.075-7.906 32.927-12.497 55.988-23.682 106.279-57.589 149.475-100.785 23.567-23.569 44.35-49.263 62.234-76.829l-45.087-142.361-134.382-44.118-194.353 141.201v141.529zM179.516 780.487c43.196 43.196 93.485 77.103 149.473 100.785 10.85 4.589 21.83 8.756 32.929 12.497l129.185-93.859v-141.529l-195.392-141.96-133.128 44.203-45.301 143.032c17.887 27.566 38.667 53.263 62.234 76.831zM261.693 147.834l-127.534 20.202c-22.231 29.924-40.791 62.347-55.426 96.956-23.97 56.667-36.35 116.813-36.883 178.828l107.758 77.074 133.21-44.231 75.46-232.241-96.586-96.588zM715.502 23.978c-6.744-3.237-13.571-6.32-20.49-9.247-57.942-24.509-119.515-36.935-183.012-36.935-63.494 0-125.070 12.426-183.010 36.935-7.782 3.291-15.444 6.802-23.002 10.487l-14.739 93.065 104.155 104.155h247.821l89.531-89.529-17.253-108.931zM945.269 264.99c-11.989-28.346-26.611-55.227-43.723-80.472l-139.241-22.052-92.992 92.994 72.274 222.438 132.226 43.411 108.339-77.488c-0.533-62.019-12.913-122.165-36.883-178.832z" />
<glyph unicode="&#xe92d;" glyph-name="fork" d="M321.24 592.062v-587.891c0-15.328 5.592-28.586 16.799-39.781 11.010-11.011 24.038-16.552 39.049-16.727 15.002 0.174 28.040 5.717 39.061 16.727 11.195 11.195 16.785 24.453 16.785 39.781v587.891c16.799 5.882 79.768 62.007 79.768 80.002v236.45c0 7.645-2.807 14.281-8.399 19.885-5.603 5.592-12.24 8.399-19.885 8.399-7.668 0-14.293-2.807-19.885-8.399-5.603-5.615-8.399-12.24-8.399-19.885v-183.853c0-7.668-2.807-14.293-8.399-19.885-5.603-5.603-12.228-8.388-19.885-8.388-7.668 0-14.293 2.785-19.885 8.388-5.592 5.592-8.399 12.228-8.399 19.885v183.853c0 7.645-2.807 14.281-8.399 19.885-5.592 5.592-12.227 8.399-19.883 8.399-7.668 0-14.293-2.807-19.885-8.399-5.603-5.615-8.399-12.24-8.399-19.885v-183.853c0-7.668-2.807-14.293-8.399-19.885-5.603-5.603-12.228-8.388-19.885-8.388-7.668 0-14.293 2.785-19.885 8.388-5.603 5.592-8.399 12.228-8.399 19.885v183.853c0 7.645-2.796 14.281-8.399 19.885-5.592 5.592-12.227 8.399-19.885 8.399-7.668 0-14.293-2.807-19.883-8.399-5.592-5.615-8.399-12.24-8.399-19.885v-236.441c0.006-17.991 74.576-74.118 91.375-80.011zM377.806-52.397c-0.245 0-0.476 0.070-0.72 0.070-0.243 0-0.464-0.070-0.718-0.070h1.439zM738.992-64c-0.245 0-0.474 0.070-0.718 0.070s-0.478-0.070-0.718-0.070h1.437zM618.226 450.867h64.202v-458.299c0-15.324 5.59-28.586 16.785-39.777 11.017-11.011 24.047-16.556 39.059-16.73 14.998 0.174 28.038 5.721 39.059 16.73 11.195 11.192 16.797 24.453 16.797 39.777v939.148c0 7.645-2.805 14.281-8.397 19.885-5.601 5.592-12.225 8.399-19.881 8.399h-20.326c-38.898 0-72.192-13.853-99.884-41.544-27.689-27.702-41.54-60.998-41.54-99.884v-353.566c0-3.829 1.403-7.146 4.199-9.942 2.783-2.794 6.1-4.197 9.929-4.197z" />
<glyph unicode="&#xe92e;" glyph-name="google-plus" d="M662.21 960h-244.211c-108.823 0-184.152-23.858-251.952-79.867-53.322-46.004-85.144-112.862-85.144-178.854 0-101.673 77.519-209.724 221.167-209.724 13.812 0 29.104 1.417 42.598 2.676l-1.988-4.833c-5.774-13.833-11.242-26.883-11.242-47.252 0-39.658 19.131-64.12 37.628-87.756l2.327-2.993-4.135-0.286c-59.318-4.061-169.727-11.633-250.376-61.201-95.254-56.632-102.657-139.016-102.657-162.906 0-95.053 88.581-190.995 286.492-190.995 230.124 0 350.538 126.96 350.538 252.365 0.021 92.758-54.369 138.55-112.101 187.166l-48.7 37.882c-15.049 12.469-33.789 27.983-33.789 56.727 0 28.258 18.74 46.913 35.28 63.369l1.724 1.745c52.592 41.424 112.196 88.391 112.196 189.979 0 102.139-63.824 154.921-94.514 180.292h81.041c0.994 0 1.988 0.275 2.813 0.814l69.809 43.889c1.988 1.258 2.919 3.68 2.263 5.943-0.624 2.263-2.718 3.818-5.066 3.818zM366.063-8.034c-140.274 0-234.524 65.516-234.524 163.033 0 63.675 38.548 109.944 114.47 137.451 60.799 20.464 139.28 21.479 140.063 21.479 13.293 0 19.977 0 30.595-1.333 98.152-69.852 145.34-106.528 145.34-176.379-0.011-88.983-75.097-144.251-195.944-144.251zM364.741 528.982c-117.727 0-166.586 154.752-166.586 237.612 0 42.133 9.581 74.473 29.294 98.892 21.394 26.767 58.028 44.058 93.329 44.058 108.093 0 167.866-145.287 167.866-245.702 0-15.842 0-64.035-33.292-97.507-22.388-22.346-58.8-37.353-90.611-37.353zM1004.488 481.741h-128.683v128.229c0 2.919-2.38 5.288-5.288 5.288h-55.352c-2.919 0-5.288-2.369-5.288-5.288v-128.229h-128.038c-2.919 0-5.288-2.369-5.288-5.288v-56.093c0-2.908 2.369-5.288 5.288-5.288h128.038v-129.054c0-2.908 2.369-5.288 5.288-5.288h55.352c2.908 0 5.288 2.38 5.288 5.288v129.075h128.683c2.919 0 5.288 2.358 5.288 5.288v56.072c0 2.929-2.358 5.288-5.288 5.288z" />
<glyph unicode="&#xe92f;" glyph-name="google-plus-square" d="M831.999 960h-640c-106.048 0-191.999-85.951-191.999-191.999v-640c0-106.048 85.951-191.999 191.999-191.999h640c106.048 0 191.999 85.953 191.999 191.999v640c0.002 106.048-85.951 191.999-191.999 191.999zM369.151 103.489c-113.343 0-208.959 46.144-208.959 119.871 0 74.816 87.231 147.072 200.576 147.009l35.392 0.32c-15.489 15.040-27.775 33.535-27.775 56.384 0 13.569 4.352 26.56 10.369 38.144l-18.88-0.64c-93.119 0-155.455 66.239-155.455 148.352 0 80.319 86.079 149.632 177.601 149.632h204.159l-45.824-33.024h-64.704c42.944-16.512 65.793-66.559 65.793-117.888 0-43.072-23.872-80.193-57.601-106.56-32.961-25.792-39.167-36.544-39.167-58.433 0-18.689 35.329-50.432 53.761-63.553 53.952-38.144 71.296-73.536 71.296-132.608-0.004-73.728-71.363-147.007-200.58-147.007zM896 510.784h-128v-127.808h-63.936v127.808h-128.063v65.216h128.063v128h63.936v-128h128v-65.216zM468.096 607.681c-9.089 68.993-59.073 124.417-111.617 126.017-52.544 1.537-87.808-51.264-78.719-120.383 9.089-69.056 59.073-126.337 111.68-127.872 52.479-1.602 87.808 53.117 78.656 122.238zM433.216 343.104c-15.489 4.992-32.575 8-50.816 8.192-78.336 0.832-148.48-47.744-148.48-106.176 0-59.647 56.576-109.183 134.912-109.183 110.143 0 148.48 46.592 148.48 106.111 0 7.169-0.96 14.209-2.497 21.055-8.575 33.794-39.104 50.498-81.599 80.001z" />
<glyph unicode="&#xe930;" glyph-name="home" d="M512.001 690.953l-365.205-301.073c0-0.425-0.107-1.050-0.32-1.902-0.209-0.845-0.32-1.459-0.32-1.895v-304.868c0-11.008 4.024-20.547 12.071-28.58 8.044-8.038 17.57-12.082 28.58-12.082h243.888v243.902h162.615v-243.911h243.886c11.008 0 20.547 4.036 28.58 12.091 8.047 8.024 12.084 17.57 12.084 28.58v304.868c0 1.691-0.231 2.968-0.641 3.797l-365.219 301.073zM1016.937 458.479l-139.090 115.597v259.143c0 5.924-1.904 10.796-5.726 14.609-3.791 3.809-8.663 5.713-14.6 5.713h-121.946c-5.931 0-10.801-1.904-14.616-5.713-3.806-3.813-5.708-8.687-5.708-14.609v-123.853l-154.974 129.575c-13.535 11.010-29.628 16.514-48.262 16.514-18.631 0-34.722-5.504-48.27-16.514l-456.687-380.462c-4.234-3.381-6.554-7.933-6.985-13.65-0.429-5.713 1.050-10.703 4.443-14.934l39.379-47.002c3.393-3.809 7.833-6.138 13.339-6.99 5.083-0.427 10.167 1.059 15.25 4.445l439.52 366.493 439.524-366.491c3.395-2.954 7.833-4.429 13.339-4.429h1.909c5.497 0.836 9.929 3.181 13.339 6.981l39.383 46.996c3.386 4.24 4.87 9.221 4.429 14.941-0.434 5.702-2.763 10.253-6.988 13.642z" />
<glyph unicode="&#xe931;" glyph-name="instagram" d="M718.945 960h-413.89c-168.208 0-305.055-136.847-305.055-305.055v-413.89c0-168.208 136.847-305.055 305.055-305.055h413.89c168.208 0 305.055 136.847 305.055 305.055v413.89c-0.002 168.208-136.849 305.055-305.055 305.055zM920.986 241.055c0-111.583-90.458-202.041-202.041-202.041h-413.89c-111.583 0-202.041 90.458-202.041 202.041v413.89c0 111.585 90.458 202.041 202.041 202.041h413.89c111.583 0 202.041-90.456 202.041-202.041v-413.89zM512 712.843c-146.035 0-264.843-118.808-264.843-264.841s118.808-264.843 264.843-264.843 264.843 118.808 264.843 264.843-118.808 264.841-264.843 264.841zM512 286.172c-89.376 0-161.828 72.452-161.828 161.828s72.454 161.828 161.828 161.828c89.376 0 161.828-72.452 161.828-161.828 0-89.374-72.454-161.828-161.828-161.828zM840.818 710.854c0-35.049-28.413-63.462-63.462-63.462s-63.462 28.413-63.462 63.462c0 35.049 28.413 63.462 63.462 63.462s63.462-28.413 63.462-63.462z" />
<glyph unicode="&#xe932;" glyph-name="instagram-1" d="M732.16 960h-440.32c-160.426 0-291.84-131.414-291.84-291.84v-440.32c0-160.426 131.414-291.84 291.84-291.84h440.32c160.426 0 291.84 131.414 291.84 291.84v440.32c0 160.426-131.414 291.84-291.84 291.84zM989.866 227.84c0-141.654-116.054-257.706-257.706-257.706h-440.32c-141.654 0-257.706 116.054-257.706 257.706v440.32c0 141.654 116.054 257.706 257.706 257.706h440.32c141.654 0 257.706-116.054 257.706-257.706v-440.32zM732.16 857.6h-440.32c-104.106 0-189.44-85.334-189.44-189.44v-440.32c0-104.106 85.334-189.44 189.44-189.44h440.32c104.106 0 189.44 85.334 189.44 189.44v440.32c0 104.106-85.334 189.44-189.44 189.44zM887.466 227.84c0-85.334-69.974-155.306-155.306-155.306h-440.32c-85.334 0-155.306 69.974-155.306 155.306v440.32c0 85.334 69.974 155.306 155.306 155.306h440.32c85.334 0 155.306-69.974 155.306-155.306v-440.32zM512 721.066c-150.186 0-273.066-122.88-273.066-273.066s122.88-273.066 273.066-273.066 273.066 122.88 273.066 273.066-122.88 273.066-273.066 273.066zM512 209.066c-131.414 0-238.934 107.52-238.934 238.934s107.52 238.934 238.934 238.934 238.934-107.52 238.934-238.934-107.52-238.934-238.934-238.934zM512 635.734c-104.106 0-187.734-83.626-187.734-187.734 0-104.106 83.626-187.734 187.734-187.734s187.734 83.626 187.734 187.734-83.628 187.734-187.734 187.734zM512 294.4c-85.334 0-153.6 68.266-153.6 153.6s68.266 153.6 153.6 153.6c85.334 0 153.6-68.266 153.6-153.6s-68.266-153.6-153.6-153.6zM785.066 772.266c-29.014 0-51.2-22.186-51.2-51.2s22.186-51.2 51.2-51.2c29.014 0 51.2 22.186 51.2 51.2s-22.186 51.2-51.2 51.2z" />
<glyph unicode="&#xe933;" glyph-name="linkedin" d="M1024 337.332v-378.579h-219.476v353.224c0 88.733-31.745 149.29-111.188 149.29-60.645 0-96.735-40.811-112.612-80.288-5.79-14.113-7.28-33.757-7.28-53.512v-368.714h-219.55c0 0 2.957 598.246 0 660.229h219.529v-93.585c-0.445-0.7-1.024-1.455-1.443-2.133h1.443v2.133c29.167 44.922 81.255 109.095 197.845 109.095 144.447 0.002 252.733-94.363 252.733-297.16zM124.235 937.245c-75.108 0-124.235-49.265-124.235-114.050 0-63.373 47.705-114.133 121.321-114.133h1.467c76.562 0 124.177 50.75 124.177 114.133-1.443 64.785-47.615 114.050-122.73 114.050zM13.039-41.247h219.467v660.229h-219.467v-660.229z" />
<glyph unicode="&#xe934;" glyph-name="linkedin-1" d="M264.64-62.815h-248.522v697.561h248.522v-697.561zM61.708-17.225h157.339v606.377h-157.339v-606.377zM140.423 678.285c-77.414 0-140.423 62.942-140.423 140.288s63.009 140.242 140.423 140.242c77.392 0 140.334-62.917 140.334-140.242 0-77.371-62.942-140.288-140.334-140.288zM140.423 913.222c-52.294 0-94.833-42.468-94.833-94.649 0-52.226 42.536-94.695 94.833-94.695 52.248 0 94.741 42.493 94.741 94.695 0 52.18-42.49 94.649-94.741 94.649zM1024-62.815h-248.181v339.797c0 101.693-12.354 150.089-82.635 150.089-71.1 0-98.799-40.532-98.799-144.573v-345.317h-248.089v697.564h239.928v-49.353c38.205 35.995 96.11 65.538 171.814 65.538 234.345 0 265.938-168.533 265.938-333.392v-380.354h0.025zM821.412-17.225h156.998v334.761c0 177.674-36.861 287.802-220.348 287.802-90.502 0-149.042-50.173-171.676-93.123l-6.406-12.173h-39.322v89.087h-148.748v-606.377h156.906v299.745c0 51.999 0 190.166 144.392 190.166 128.228 0 128.228-127.292 128.228-195.682v-294.208h-0.025z" />
<glyph unicode="&#xe935;" glyph-name="linkedin-2" d="M0 960v-1024h1024v1024h-1024zM314.437 115.234c0-13.041-10.572-23.613-23.613-23.613h-100.485c-13.041 0-23.613 10.572-23.613 23.613v428.678c0 13.041 10.572 23.613 23.613 23.613h100.485c13.041 0 23.613-10.572 23.613-23.613v-428.678zM240.418 633.091c-45.631-0.923-85.732 37.189-85.723 85.806 0 47.152 38.832 85.62 86.3 85.581 46.9-0.038 85.581-38.775 85.48-85.909-0.112-49.352-41.070-86.552-86.058-85.478zM869.305 101.325c0-5.415-4.391-9.803-9.806-9.801l-128.417 0.031c-5.413 0.002-9.801 4.391-9.801 9.803v264.705c0 22.881-9.271 43.606-24.271 58.598-15.198 15.207-36.286 24.528-59.546 24.265-45.566-0.515-81.91-38.351-81.91-83.919v-263.618c0-5.415-4.391-9.803-9.806-9.801l-128.1 0.031c-5.413 0.002-9.799 4.391-9.799 9.801v456.299c0 5.413 4.388 9.803 9.803 9.803h125.368c5.413 0 9.803-4.388 9.803-9.803v-52.619c0.011 0.022 0.506-0.040 1.346-0.169 2.422 4.382 5.060 8.626 7.909 12.713 26.127 37.497 69.565 62.029 118.733 62.029h25.772c89.869 0 162.723-72.853 162.723-162.723v-315.628z" />
<glyph unicode="&#xe936;" glyph-name="mail" d="M829.086 249.751c-4.061 0-8.123 1.486-11.293 4.491l-189.994 178.239c-6.637 6.208-6.967 16.675-0.726 23.312 6.241 6.703 16.642 7 23.345 0.726l189.994-178.239c6.637-6.208 6.967-16.675 0.726-23.312-3.269-3.467-7.627-5.217-12.052-5.217zM194.881 249.751c-4.392 0-8.783 1.75-12.052 5.217-6.241 6.637-5.91 17.104 0.726 23.312l190.060 178.239c6.67 6.208 17.137 5.944 23.345-0.726 6.241-6.637 5.91-17.104-0.726-23.312l-190.060-178.239c-3.17-3.005-7.231-4.491-11.293-4.491zM941.451 84.026h-858.903c-45.501 0-82.549 37.015-82.549 82.549v562.883c0 45.534 37.048 82.549 82.549 82.549h858.903c45.501 0 82.549-37.015 82.549-82.549v-562.883c0-45.534-37.048-82.549-82.549-82.549zM82.549 778.987c-27.307 0-49.529-22.222-49.529-49.529v-562.883c0-27.307 22.222-49.529 49.529-49.529h858.903c27.307 0 49.529 22.222 49.529 49.529v562.883c0 27.307-22.222 49.529-49.529 49.529h-858.903zM512 365.055c-21.958 0-43.916 7.297-60.624 21.859l-423.97 369.851c-6.868 5.977-7.594 16.411-1.618 23.312 6.043 6.868 16.444 7.495 23.312 1.585l423.97-369.818c21.099-18.392 56.76-18.392 77.827 0l423.442 369.224c6.835 5.977 17.236 5.316 23.312-1.585 5.977-6.901 5.283-17.302-1.585-23.312l-423.442-369.224c-16.741-14.595-38.666-21.892-60.624-21.892z" />
<glyph unicode="&#xe937;" glyph-name="mark" d="M875.128-64c-11.11 0-21.938 4.827-29.387 13.653l-333.743 395.702-333.743-395.702c-10.403-12.34-27.41-16.85-42.563-11.323-15.156 5.54-25.24 19.958-25.24 36.095v947.146c0 21.222 17.207 38.428 38.428 38.428h726.235c21.219 0 38.428-17.207 38.428-38.428v-947.14c0-16.137-10.084-30.555-25.24-36.095-4.31-1.574-8.768-2.336-13.176-2.336zM511.998 443.39c11.326 0 22.073-4.996 29.375-13.653l295.318-350.138v803.544h-649.382v-803.544l295.315 350.138c7.301 8.657 18.049 13.653 29.375 13.653z" />
<glyph unicode="&#xe938;" glyph-name="music" d="M973.879 734.444v196.553c0 9.227-4.506 18.025-11.802 23.389-7.51 5.364-17.166 7.081-25.964 4.292l-585.583-186.039c-12.016-3.862-20.17-15.020-20.17-27.681v-573.138c-30.685 21.243-69.952 32.83-111.151 32.83-43.559 0-84.973-13.089-116.516-36.693-33.903-25.535-52.572-60.082-52.572-97.633s18.668-72.098 52.572-97.633c31.543-23.604 72.742-36.693 116.516-36.693s84.973 13.089 116.516 36.693c33.903 25.535 52.572 60.082 52.572 97.633v456.622l527.647 167.8v-336.029c-30.685 21.243-69.952 32.83-111.151 32.83-43.559 0-84.973-13.089-116.516-36.693-33.903-25.535-52.572-60.082-52.572-97.633s18.668-72.098 52.572-97.633c31.543-23.604 72.742-36.693 116.516-36.693s84.973 13.089 116.516 36.693c33.903 25.535 52.572 60.082 52.572 97.633v477.007c0 0.215 0 0.215 0 0.215zM219.208-6.064c-60.296 0-111.151 34.976-111.151 76.39s50.855 76.39 111.151 76.39 111.151-34.976 111.151-76.39c0-41.628-50.855-76.39-111.151-76.39zM388.296 587.888v136.042l527.647 167.585v-136.042l-527.647-167.585zM805.006 180.833c-60.296 0-111.151 34.976-111.151 76.39s50.855 76.39 111.151 76.39 111.151-34.976 111.151-76.39c-0.215-41.414-51.070-76.39-111.151-76.39z" />
<glyph unicode="&#xe939;" glyph-name="nature" d="M1003.204 471.775l-281.291 77.282 95.533 167.941c5.849 10.29 4.116 23.233-4.224 31.574-8.394 8.394-21.392 10.127-31.628 4.278l-166.966-94.991-77.715 282.808c-3.087 11.427-13.485 19.334-25.345 19.334-11.806 0-22.204-7.907-25.345-19.334l-77.174-280.804-163.229 92.825c-10.29 5.903-23.233 4.17-31.628-4.278-8.34-8.34-10.127-21.284-4.224-31.574l93.421-164.258-282.699-77.661c-11.427-3.141-19.334-13.539-19.334-25.4s7.907-22.204 19.334-25.345l280.425-77.065-94.612-166.262c-5.903-10.344-4.116-23.287 4.224-31.628 8.394-8.34 21.392-10.182 31.628-4.333l163.608 93.096 77.661-282.754c3.141-11.319 13.539-19.226 25.345-19.226 11.86 0 22.259 7.907 25.4 19.226l77.824 283.349 167.887-95.533c4.062-2.22 8.557-3.412 13.052-3.412 0.162 0 0.271 0 0.487 0 14.568 0 26.266 11.752 26.266 26.32 0 6.445-2.329 12.402-6.228 17.005l-91.471 160.792 281.075 77.228c11.427 3.141 19.334 13.539 19.334 25.345s-7.961 22.313-19.388 25.454zM34.823 449.679l6.499 1.787 460.063-6.824-106.364-93.962-360.198 98.999zM412.568 566.441l98.945 360.144 1.787-6.499-6.77-460.063-93.962 106.418zM511.946 447.946v0 0zM513.733 435.869l93.962-106.31-98.999-360.144-1.787 6.445 6.824 460.009zM784.085 172.774l-155.918 160.575-4.82-1.354 63.418 17.439 102.086-179.422-4.766 2.762zM982.516 444.48l-460.063 6.824 106.364 93.908 360.144-98.945-6.445-1.787zM790.529 725.879l-2.708-4.766-162.633-157.868 0.596-2.275-16.951 61.576 181.697 103.331zM397.891 563.192l-59.031-16.193-101.653 178.718 4.766-2.708 155.322-159.98 0.596 0.162zM411.376 273.235l-178.014-101.219 2.762 4.766 159.276 154.618 15.976-58.165z" />
<glyph unicode="&#xe93a;" glyph-name="next" d="M774.115 468.413l-483.056 483.056c-11.374 11.374-29.614 11.374-40.988 0s-11.374-29.614 0-40.988l462.455-462.455-462.455-462.455c-11.374-11.374-11.374-29.614 0-40.988 5.58-5.58 13.090-8.584 20.387-8.584s14.807 2.79 20.387 8.584l483.056 483.056c11.374 11.159 11.374 29.614 0.215 40.773z" />
<glyph unicode="&#xe93b;" glyph-name="palm-tree-2" d="M995.008 657.966c-30.714 46.498-68.412 71.762-109.021 73.062-28.904 0.914-54.516-10.554-76.054-26.698 3.206 26.728 0.322 54.642-14.946 79.214-21.444 34.51-62.182 54.506-117.809 57.836-7.066 0.402-13.568-3.746-16.152-10.318-2.582-6.574-0.638-14.062 4.816-18.552 0.456-0.374 32.418-27.226 62.006-82.574-22.236 15.38-47.234 24.978-74.078 28.104-48.954 5.716-99.497-12.124-128.747-45.424-4.11-4.676-5.194-11.286-2.798-17.034s7.858-9.63 14.070-10.004c0.864-0.052 59.146-3.766 129.189-19.65-1.132-0.51-2.266-1.006-3.394-1.562-34.832-17.152-58.472-51.17-70.266-101.111-1.466-6.21 0.822-12.704 5.86-16.62 2.922-2.272 6.454-3.436 10.012-3.436 2.574 0 5.164 0.608 7.538 1.848l77.894 40.616c-39.658-53.782-92.307-145.039-126.173-281.586-2.168-8.742 3.162-17.584 11.902-19.752 1.318-0.326 2.64-0.484 3.94-0.484 7.318 0 13.974 4.962 15.812 12.384 29.416 118.595 73.926 200.799 106.089 248.877 25.726 38.458 47.85 61.794 57.784 71.476l1.076-24.828c-9.738-10.812-41.288-48.77-73.922-119.687-34.27-74.48-76.348-201.387-84.53-385.67-12.622 1.134-25.37 2.020-38.226 2.664-12.582 232.893-77.686 393.152-130.709 487.149-21.418 37.968-42.464 68.334-60.736 91.765l102.329-53.362c2.376-1.238 4.962-1.848 7.538-1.848 3.556 0 7.092 1.164 10.012 3.436 5.036 3.916 7.324 10.41 5.86 16.618-13.758 58.246-41.226 97.871-81.64 117.769-4.144 2.040-8.32 3.814-12.51 5.358 87.269 20.676 161.613 25.41 162.677 25.476 6.216 0.374 11.678 4.254 14.072 10.004 2.396 5.748 1.312 12.358-2.798 17.034-34.022 38.728-92.865 59.464-149.909 52.806-35.456-4.13-68.164-17.96-96.575-40.314 36.818 73.582 79.456 109.693 80.014 110.157 5.452 4.488 7.398 11.974 4.816 18.55-2.58 6.574-9.11 10.71-16.152 10.318-64.88-3.88-112.315-27.084-137.181-67.098-19.046-30.65-21.44-65.896-16.278-99.147-26.208 21.112-57.932 36.68-93.987 35.512-47.088-1.5-90.911-30.964-126.733-85.194-3.888-5.884-3.536-13.588 0.846-19.114 4.38-5.524 11.834-7.602 18.442-5.156 0.704 0.26 53.306 19.14 135.473 14.192-33.584-13.414-61.934-34.822-83.258-63.462-34.296-46.064-45.794-107.385-29.282-156.215 1.994-5.898 7.174-10.146 13.348-10.946 0.702-0.092 1.404-0.136 2.1-0.136 5.426 0 10.558 2.714 13.602 7.316 0.588 0.89 41.886 62.888 103.453 128.103-0.76-4.4-1.316-8.906-1.622-13.512-2.99-44.95 17.574-88.557 61.12-129.611 3.082-2.906 7.102-4.442 11.188-4.442 2.066 0 4.148 0.392 6.13 1.198 5.912 2.4 9.88 8.026 10.156 14.402l5.136 118.461c48.446-61.554 153.585-228.915 168.923-536.089-72.196-3.706-140.685-15.16-200.473-33.682-73.91-22.896-129.365-54.95-160.369-92.699-4.002-4.872-4.838-11.616-2.142-17.316 2.696-5.702 8.436-9.338 14.742-9.338h800.075c6.304 0 12.046 3.636 14.742 9.338 2.694 5.7 1.86 12.444-2.142 17.316-33.76 41.104-98.477 76.276-182.225 99.047-8.688 2.364-17.65-2.768-20.012-11.458s2.768-17.65 11.458-20.012c57.44-15.616 104.675-36.946 137.257-61.618h-718.144c28.586 21.576 68.546 40.764 116.409 55.59 70.85 21.948 154.747 33.548 242.617 33.548 53.148 0 104.889-4.24 153.777-12.604 8.888-1.526 17.304 4.446 18.822 13.322s-4.446 17.304-13.322 18.822c-12.57 2.15-25.32 4.036-38.222 5.656 7.678 178.917 47.98 301.692 80.772 373.548 17.278 37.86 34.286 65.85 47.374 84.812l3.696-85.244c0.276-6.374 4.246-12.002 10.156-14.402 1.984-0.806 4.066-1.198 6.13-1.198 4.086 0 8.108 1.534 11.188 4.442 37.338 35.2 54.964 72.692 52.388 111.431-0.082 1.252-0.222 2.482-0.346 3.718 48.798-52.696 81.174-101.301 81.65-102.023 3.042-4.602 8.174-7.314 13.598-7.314 0.696 0 1.4 0.046 2.102 0.136 6.174 0.802 11.356 5.048 13.348 10.946 14.194 41.988 4.346 94.665-25.092 134.201-16.126 21.656-36.918 38.488-61.332 50.046 18.89 0.63 35.234-0.2 48.304-1.528 33.87-3.442 53.99-10.754 54.15-10.814 6.618-2.474 14.070-0.41 18.472 5.112 4.406 5.526 4.75 13.256 0.856 19.15zM155.795 767.607c-27.856 0-51.638-2.462-70.444-5.528 22.38 21.966 46.594 33.78 71.41 34.576 26.926 0.86 54.662-11.478 81.634-36.058-30.314 5.098-58.038 7.010-82.6 7.010zM96.283 561.244c-0.114 30.568 10.522 63.134 30.368 89.789 25.224 33.88 62.736 55.648 108.263 63.492-61.388-54.31-111.155-116.293-138.631-153.281zM259.83 547.858c-18.362 24.79-26.824 49.874-25.214 74.894 1.874 29.096 17.042 53.866 31.548 71.218l-6.334-146.113zM457.529 661.946l-129.801 67.684c22.184 3.89 51.138 4.636 77.392-8.294 22.556-11.104 40.1-31.014 52.408-59.39zM434.833 828.879c5.938 0.692 11.884 1.030 17.81 1.030 27.018 0 53.464-7.038 75.124-19.66-45.774-5.286-124.335-17.358-202.075-43.336 29.568 35.488 67.19 57.078 109.141 61.966zM284.058 786.947c-7.79 35.652-4.604 65.826 9.624 88.725 13.106 21.088 35.448 36.142 65.668 44.528-22.702-27.754-52.342-71.796-75.292-133.253zM516.539 90.361c-6.424 0.002-12.826-0.074-19.208-0.194-10.566 212.507-63.612 358.876-106.837 444.875-40.662 80.898-79.852 124.541-92.611 137.597l1.34 30.872c19.902-17.188 65.868-67.23 109.499-145.029 50.678-90.361 112.883-244.285 125.441-468.299-5.862 0.102-11.73 0.178-17.624 0.178zM636.594 592.974c9.866 19.758 23.154 33.842 39.728 42.054 13.34 6.612 27.63 8.876 40.958 8.876 5.256 0 10.364-0.352 15.202-0.93l-95.889-50zM580.119 714.013c20.584 10.092 45.394 14.492 69.876 11.64 31.934-3.72 60.856-19.152 84.384-44.492-58.566 18.64-116.643 28.174-154.261 32.852zM776.745 701.978c-17.234 43.434-38.216 76.048-55.612 98.405 18.35-6.288 35.424-16.788 46.15-34.050 10.496-16.888 13.636-38.702 9.462-64.354zM800.235 498.539l-4.692 108.193c10.286-13.712 19.83-31.758 21.212-52.558 1.234-18.528-4.308-37.142-16.52-55.634zM908.405 576.528c14.72-19.77 23.322-43.45 24.882-66.322-22.872 30.228-60.188 75.746-105.625 117.123 33.708-7.694 61.544-25.018 80.742-50.8zM824.491 674.424c19.4 15.854 39.104 24.044 58.3 24.044 0.718 0 1.438-0.010 2.152-0.034 20.31-0.65 37.948-10.182 52.576-22.92-28.068 3.874-66.8 5.724-113.029-1.090z" />
<glyph unicode="&#xe93c;" glyph-name="palm-trees" d="M432.674 156.673c22.941 3.607 22.935 3.607 18.948-19.367-2.143-12.366-4.339-24.725-6.329-37.124-0.439-2.722-2.256-6.868 3.547-6.243 12.625 1.358 25.164-0.599 37.729-1.058 5.211-0.186 6.782 0.945 5.611 6.383-1.318 6.11-1.724 12.446-2.216 18.708-0.359 4.566-0.566 10.010 5.231 10.988 6.609 1.118 6.176 4.379 5.371 9.537-2.103 13.451-3.74 26.988-5.138 40.531-0.552 5.338-1.837 11.514 6.556 12.911 4.18 0.699 2.143 4.519 2.123 6.982-0.126 15.394-0.399 30.788-0.672 46.182-0.126 7.115 2.822 11.827 10.369 11.308 6.655-0.459 6.249 3.348 6.256 7.813 0.020 14.349 0.1 28.698 0.459 43.040 0.146 5.923 0.153 12.592 8.872 12.532 4.566-0.033 3.7 3.208 3.867 5.777 0.672 10.469 1.118 20.958 1.897 31.427 0.413 5.504 0.246 11.793 8.512 11.687 4.419-0.060 3.627 3.274 3.953 5.897 1.418 11.434 2.675 22.888 4.313 34.289 0.792 5.497 1.544 11.574 9.304 11.627 4.665 0.033 3.374 3.707 3.68 6.063 1.351 10.389 2.436 20.818 3.614 31.234 0.632 5.571 2.156 10.689 9.011 10.622 4.499-0.040 3.973 3.028 4.319 5.577 1.032 7.607 1.704 15.274 2.882 22.861 2.023 13.025 3.081 13.617 16.991 10.555 1.564 11.74 3.081 23.44 4.705 35.127 0.532 3.834 1.384 9.031 5.957 8.399 8.432-1.158 7.96 4.193 8.645 9.318 0.686 5.191 1.564 10.356 2.136 15.554 0.326 2.955 1.504 6.995 3.601 7.081 14.123 0.572 9.557 12.725 12.505 19.86 2.722 6.589 0.592 16.073 12.625 15.334 3.314-0.2 2.469 4.393 2.815 7.001 3.581 27.081 3.567 27.087 29.417 20.126 25.909-6.975 25.836-6.915 8.892-27.953-3.408-4.233-11.62-8.566-0.406-14.096 2.829-1.398-0.040-5.777-2.076-8.146-4.333-5.038-9.091-9.73-13.204-14.928-2.782-3.521-10.249-6.729-1.524-12.386 2.083-1.351-0.033-5.151-1.97-7.354-4.16-4.725-8.419-9.364-12.399-14.236-2.443-2.995-8.652-5.324-1.344-10.462 2.416-1.697-1.424-5.604-3.334-7.887-7.833-9.377-15.88-18.589-23.786-27.793 0.652-2.755 2.849-3.075 4.725-3.541 9.231-2.269 7.92-7.201 3.294-12.898-5.071-6.243-10.815-12.026-15.188-18.715-2.642-4.040-12.765-7.401-3.015-14.795 1.897-1.438-1.151-5.105-2.755-7.328-5.118-7.081-10.429-14.023-15.534-21.111-0.978-1.364-4.113-3.667-0.952-4.765 9.544-3.328 3.241-8.366 1.344-12.133-5.81-11.514-12.279-22.688-18.402-34.042-1.571-2.915-4.113-5.557 2.296-7.008 5.464-1.238 2.729-6.016 1.045-9.331-5.211-10.269-10.622-20.432-15.78-30.721-1.298-2.589-4.978-5.198 1.012-7.927 4.845-2.21 1.331-6.675-0.193-9.923-6.509-13.883-13.211-27.673-19.727-41.556-1.284-2.735-3.474-5.264-2.888-8.659 15.5-1.864 16.046-2.955 9.783-17.357-5.83-13.411-11.454-26.914-17.204-40.365-1.531-3.581-3.66-6.549 2.602-8.532 4.486-1.418 1.83-5.843 0.725-9.005-5.291-15.154-8.772-30.788-12.412-46.362 2.19-1.903 4.705-1.018 7.021-0.992 8.319 0.093 10.489-3.7 7.927-11.374-3.527-10.562-6.243-21.417-10.13-31.839-2.216-5.937-0.506-7.654 5.005-9.564 26.362-9.138 50.401-22.276 69.868-42.788 10.735-11.308 18.968-24.099 23.44-39.147 4.273-14.396-1.504-22.801-16.292-22.815-108.842-0.093-217.685-0.1-326.521-0.007-14.782 0.013-20.612 8.512-16.119 22.968 8.073 25.969 25.73 44.332 47.559 59.3 20.399 13.99 42.981 23.147 66.907 28.671 7.993 1.844 9.278 4.838 7.394 12.086-3.068 11.793-5.244 23.82-7.88 35.726-1.231 5.551-1.418 10.689 5.358 12.625 5.018 1.431 3.081 4.173 1.95 7.181-5.298 14.010-10.442 28.086-15.72 42.102-1.77 4.712-3.92 9.357 2.529 12.359 4.239 1.97 1.418 4.672 0.486 6.942-5.544 13.53-11.121 27.048-16.871 40.485-3.288 7.694-5.537 14.802 5.058 18.715 4.719 1.744 2.476 4.732 1.058 7.541-6.742 13.397-13.51 26.781-20.146 40.232-2.895 5.863-7.248 11.793 1.651 16.918 3.641 2.096 0.193 5.045-0.985 7.168-5.244 9.457-10.848 18.722-16.133 28.159-2.582 4.612-5.384 9.677 0.459 13.863 4.439 3.188 0.652 5.464-0.572 7.66-5.784 10.362-11.966 20.492-17.777 30.841-2.702 4.819-6.11 9.83 0.552 14.635 3.84 2.775-0.153 4.878-1.458 6.755-5.591 8.026-11.221 16.046-17.277 23.72-5.804 7.354-5.69 13.743 1.358 20.133 8.033 7.281 15.953 14.695 23.707 22.269 4.572 4.466 6.902 3.281 8.552-2.376 3.993-13.703 8.199-27.347 12.193-41.051 1.145-3.933 0.473-8.845 7.501-4.752 5.404 3.148 7.028-1.85 7.9-6.283 2.695-13.67 5.384-27.347 8.166-41.004 0.839-4.1-1.118-10.762 7.813-7.261 3.348 1.311 4.626-3.301 5.091-6.482 1.977-13.464 4.020-26.928 5.77-40.418 0.459-3.541-0.186-5.863 5.398-5.451 5.118 0.379 4.912-5.664 5.238-9.657 1.458-17.77 2.902-35.54 4.053-53.323 0.306-4.719 0.379-7.481 6.363-4.566 7.62 3.714 10.842 0.233 11.008-7.813 0.379-18.183 1.418-36.352 0.446-54.554-0.186-3.474-2.715-8.359 5.078-8.432 5.73-0.053 4.599-6.070 4.379-10.010-1.025-18.083-2.276-36.152-3.447-54.321zM721.985 661.093c15.134 1.804 30.082 4.972 45.403 6.083 61.676 4.479 111.764-16.359 147.404-67.839 25.776-37.23 37.317-79.838 44.485-123.89 3.141-19.321 4.978-38.794 6.183-58.321 0.18-2.862 1.797-7.414-1.551-8.392-4.366-1.278-5.051 3.973-6.476 6.729-23.307 45.164-50.634 87.672-83.658 126.353-36.705 42.994-78.094 79.971-132.136 100.157-9.477 3.541-19.094 6.815-29.171 7.973-9.404 1.078-9.471 5.264-5.338 12.133 9.75 16.206 20.891 31.407 33.037 45.856 18.995 22.588 39.886 43.12 65.589 58.155 49.177 28.765 95.245 23.467 138.572-17.497 36.991-34.974 59.919-79.326 79.612-125.508 0.213-0.499-0.246-1.284-0.612-2.928-92.823 72.258-193.419 85.861-301.343 40.937zM303.653 503.672c-3.774-4.692-8.878-3.321-13.131-4.186-45.796-9.258-83.605-33.889-119.578-61.948-35.407-27.613-67.027-59.24-96.77-92.796-0.925-1.045-1.797-2.143-2.755-3.168-2.363-2.529-4.679-6.056-8.599-4.652-4.16 1.484-3.055 5.877-3.042 9.151 0.106 27.014 3.314 53.676 11.407 79.479 15.98 50.96 48.285 85.216 102.174 95.112 43.713 8.026 86.061 0.080 127.424-14.495 0.898-0.319 1.551-1.318 2.868-2.496zM673.38 663.349c-11.048 13.171-20.359 24.924-31.587 34.967-39.027 34.908-85.575 50.015-136.981 51.879-39.806 1.444-78.48-5.597-116.41-17.244-2.662-0.819-5.304-1.671-7.953-2.522-1.697-0.546-3.521-1.065-4.665 0.752-1.045 1.664-0.419 3.408 0.839 4.772 36.099 39.187 74.128 75.772 130.060 83.685 40.066 5.664 72.224-11.494 99.438-39.034 31.201-31.587 51.18-70.228 67.2-111.125 0.459-1.178 0.060-2.702 0.060-6.13zM682.618 660.008c-5.178 31.653-12.532 62.354-25.563 91.512-32.139 71.932-85.349 122.226-156.961 153.813-2.549 1.125-5.238 1.957-7.694 3.248-1.438 0.759-3.587 1.844-2.849 3.8 0.499 1.338 2.289 2.809 3.72 3.081 33.264 6.323 66.521 8.086 99.545-1.338 27.467-7.833 49.643-23.321 66.288-46.681 15.727-22.069 24.166-47.107 28.738-73.369 7.507-43.107 5.903-86.274-1.451-129.294-0.28-1.617-0.013-3.561-3.774-4.772zM0 489.636c5.371 13.617 13.67 24.299 21.89 35.014 17.351 22.608 36.911 42.967 60.97 58.574 43.786 28.405 89.229 31.014 136.090 8.193 33.989-16.559 60.944-41.649 84.65-70.581 1.058-1.298 1.717-2.922 2.429-6.043-106.919 50.148-208.454 39.4-306.029-25.157zM322.501 537.083c21.544 37.29 46.901 69.789 84.464 90.607 35.566 19.713 71.912 19.274 108.297 1.757 27.201-13.098 49.376-32.665 69.769-54.481 2.050-2.196 5.77-4.918 3.927-7.833-2.462-3.893-6.396-0.419-9.364 0.592-38.881 13.337-78.68 21.59-119.944 20.618-48.99-1.151-93.309-15.261-130.233-48.864-1.451-1.318-2.689-3.294-6.915-2.396zM313.296 534.354c-1.957 0.872-2.589 2.476-2.675 4.233-2.043 39.753-0.293 78.973 17.457 115.697 19.84 41.051 53.982 60.83 98.274 64.351 22.748 1.804 45.377-0.353 67.626-5.737 2.902-0.699 7.328-0.2 7.175-4.153-0.14-3.547-4.639-3.634-7.487-4.419-37.809-10.436-72.231-27.454-102.653-52.365-34.721-28.425-58.834-64.005-72.564-106.719-1.211-3.76-1.038-8.466-5.151-10.888zM704.275 689.471c-2.862 7.135 0.373 12.725 1.025 18.409 4.639 40.179 1.883 80.151-2.549 120.117-1.857 16.778 3.687 23.414 20.885 25.59 35.194 4.459 58.408-10.788 68.664-44.804 2.988-9.91 1.923-19.188-5.504-26.189-29.097-27.407-53.856-58.541-78.494-89.815-0.819-1.032-2.083-1.73-4.027-3.308zM299.746 654.051c-2.782-21.63-4.672-41.803-4.046-62.122 0.24-7.667 1.278-15.307 1.644-22.974 0.193-3.98 2.409-9.038-1.764-11.614-4.439-2.735-7.687 1.81-10.848 4.226-13.883 10.589-27.547 21.477-41.463 32.026-5.83 4.419-12.186 8.14-18.136 12.412-10.968 7.873-13.57 17.53-8.353 30.042 12.193 29.231 32.112 41.47 63.153 38.788 12.772-1.111 20.366-9.684 19.813-20.785z" />
<glyph unicode="&#xe93d;" glyph-name="people" d="M769.954 407.77c-0.66 1.804-66.298 181.388-95.206 265.498-18.65 54.272-49.924 81.79-92.948 81.79-59.868 0-79.798 0-139.6 0-43.024 0-74.298-27.518-92.948-81.79-28.904-84.11-94.544-263.696-95.206-265.498-7.624-20.85 3.098-43.936 23.95-51.558 20.85-7.624 43.936 3.102 51.558 23.95 0.546 1.496 45.552 124.628 77.648 215.29 2.87-9.424 8.74-17.516 16.466-23.254l0.096-58.902-69.146-174.36c-3.77-9.51 1.75-20.134 11.668-22.518 10.322-2.48 23.992-5.86 38.82-9.564v-322.614c0-26.642 21.598-48.24 48.24-48.24s48.24 21.598 48.24 48.24v299.81c6.928-0.614 13.896-0.61 20.826 0.012v-299.822c0-26.642 21.598-48.24 48.24-48.24s48.24 21.598 48.24 48.24v322.658c14.814 3.704 28.472 7.076 38.796 9.552 9.848 2.36 15.462 12.984 11.68 22.522l-69.134 174.326 0.096 58.902c7.728 5.736 13.594 13.828 16.466 23.254 32.094-90.662 77.102-213.794 77.648-215.29 7.624-20.852 30.708-31.574 51.558-23.95 20.854 7.62 31.576 30.706 23.952 51.556zM599.796 872.204c0-48.488-39.308-87.796-87.796-87.796s-87.796 39.308-87.796 87.796c0 48.488 39.308 87.796 87.796 87.796s87.796-39.308 87.796-87.796z" />
<glyph unicode="&#xe93e;" glyph-name="phone-call" d="M1023.299 117.185c-3.256 24.606-17.461 45.823-38.969 58.205l-252.625 145.452c-30.941 17.815-70.192 12.628-95.447-12.624l-49.759-49.759c-13.241-13.243-34.189-14.415-48.718-2.723-39.228 31.564-77.851 66.302-114.796 103.249-36.945 36.945-71.683 75.567-103.249 114.796-11.693 14.53-10.523 35.477 2.723 48.72l49.757 49.759c25.252 25.25 30.445 64.497 12.626 95.445l-145.452 252.625c-12.385 21.51-33.599 35.713-58.205 38.969-24.609 3.262-48.788-4.945-66.34-22.497l-74.976-74.978c-52.329-52.331-53.17-148.055-2.366-269.541 48.85-116.813 140.013-245.406 256.692-362.089 116.683-116.681 245.275-207.844 362.091-256.694 59.8-25.007 113.352-37.502 158.567-37.5 46.639 0 84.402 13.298 110.975 39.869l74.976 74.978c17.549 17.551 25.75 41.731 22.497 66.338zM715.154 292.093l252.625-145.452c12.493-7.192 20.743-19.515 22.632-33.807 1.588-11.994-1.528-23.804-8.592-33.32l-335.735 191.61 13.635 13.635c14.665 14.665 37.467 17.68 55.436 7.334zM176.832 926.41c14.294-1.891 26.615-10.14 33.807-22.634l145.452-252.625c10.35-17.974 7.334-40.771-7.332-55.434l-12.524-12.524-192.663 334.625c7.876 5.832 17.295 8.999 27.114 8.999 2.037 0 4.091-0.135 6.146-0.407zM902.365-0.672c-41.574-41.574-126.602-39.831-233.282 4.782-112.925 47.223-237.729 135.847-351.429 249.544-113.699 113.699-202.323 238.506-249.546 351.429-44.615 106.682-46.356 191.71-4.782 233.286l55.66 55.662 192.953-335.131-12.94-12.94c-25.246-25.248-27.444-65.216-5.111-92.977 32.31-40.154 67.853-79.671 105.636-117.455 37.788-37.786 77.305-73.328 117.457-105.638 27.756-22.333 67.724-20.137 92.977 5.113l11.806 11.806 336.202-191.878-55.6-55.602z" />
<glyph unicode="&#xe93f;" glyph-name="plate" d="M883.942 454.020c-11.102 0.454-20.402-8.232-20.818-19.312-0.106-2.868-0.25-5.726-0.424-8.576-0.684-11.068 7.734-20.594 18.802-21.28 0.422-0.028 0.842-0.040 1.256-0.040 10.524 0 19.364 8.194 20.022 18.84 0.196 3.172 0.354 6.356 0.474 9.55 0.416 11.080-8.23 20.402-19.312 20.818zM993.322 623.282c3.090 5.95 3.078 13.204-0.396 19.252-2.478 4.314-6.378 7.416-10.84 8.962-25.31 58.434-61.666 112.162-108.050 158.546-96.702 96.702-225.276 149.958-362.036 149.958s-265.334-53.256-362.038-149.962-149.962-225.278-149.962-362.038c0-72.774 15.142-143.204 43.828-207.772-9.966-11.070-15.422-25.238-15.422-40.248 0-16.090 6.266-31.216 17.642-42.592 11.744-11.744 27.168-17.612 42.592-17.612 4.476 0 8.948 0.51 13.336 1.5 14.546-19.38 30.548-37.874 47.986-55.312 24.806-24.806 51.744-46.7 80.348-65.62-6.988-20.974-2.16-45.052 14.504-61.72 11.744-11.744 27.168-17.612 42.592-17.612s30.85 5.87 42.592 17.612l7.712 7.712c55.146-19.922 113.914-30.336 174.29-30.336 136.76 0 265.334 53.256 362.038 149.962s149.962 225.278 149.962 362.038c0 60.738-10.528 119.85-30.678 175.282zM40.156 448c0 260.174 211.668 471.844 471.844 471.844 30.498 0 60.306-2.97 89.202-8.534l-70.206-70.204c-7.854-0.69-15.138-1.576-18.996-1.576-215.89 0-391.53-175.64-391.53-391.53 0-39.654 5.952-77.938 16.966-114.038l-62.826-62.826c-22.186 54.652-34.454 114.346-34.454 176.864zM441.248 689.682l0.55-8.878c1.576-25.422-7.85-50.33-25.86-68.34l-245.79-245.788c-6.214 26.112-9.522 53.336-9.522 81.324 0 185.834 145.020 338.41 327.83 350.566l-9.664-9.664c-26.146-26.146-39.83-62.312-37.544-99.22zM74.442 185.784c-3.792 3.792-5.88 8.832-5.88 14.196s2.088 10.406 5.88 14.198l369.89 369.888c26.146 26.148 39.832 62.314 37.544 99.22l-0.55 8.878c-1.574 25.422 7.85 50.33 25.862 68.34l139.3 139.296c0.588 0.586 1.116 1.21 1.616 1.848l3.822-2.986c12.558-3.908 24.89-8.328 36.974-13.236l-142.624-142.626c-7.84-7.84-7.84-20.554 0-28.396 3.92-3.92 9.060-5.88 14.198-5.88s10.278 1.962 14.198 5.88l149.548 149.548c1.182 1.182 2.164 2.486 2.99 3.856 12.554-6.464 24.774-13.482 36.648-21.008l-11.24-11.242c0 0 0 0-0.002 0l-149.548-149.548c-7.84-7.84-7.84-20.554 0-28.396 3.92-3.92 9.060-5.88 14.198-5.88s10.278 1.962 14.198 5.88l165.882 165.884c61.456-46.814 111.114-108.336 143.692-179.28l-57.452-15.124c-97.916-25.776-187.514-77.244-259.108-148.838l-82.016-82.018c-16.048-16.048-24.296-38.236-22.63-60.87 0.81-10.98-3.192-21.742-10.976-29.528l-167.062-167.060c-47.524 26.43-88.304 63.53-119.078 108.084l278.412 278.412c18.010 18.012 42.922 27.414 68.344 25.864l8.876-0.548c36.906-2.302 73.072 11.398 99.22 37.544l160.24 160.24c7.84 7.84 7.84 20.554 0 28.396-7.84 7.838-20.554 7.838-28.396 0l-160.24-160.24c-18.008-18.012-42.912-27.424-68.344-25.864l-8.876 0.548c-36.896 2.304-73.072-11.398-99.22-37.544l-369.894-369.888c-7.826-7.83-20.564-7.826-28.396 0zM136.522 162.676l57.38 57.378c31.532-43.872 71.894-80.962 118.474-108.686l-58.264-58.264c-45.158 29.598-84.948 66.716-117.59 109.572zM301.606-12.98c-7.83-7.832-20.568-7.828-28.396-0.002s-7.828 20.566 0 28.394l264.038 264.036c16.048 16.050 24.298 38.238 22.63 60.872-0.81 10.978 3.192 21.744 10.978 29.528l82.014 82.016c66.574 66.574 149.888 114.432 240.936 138.398l14.992 3.948-607.192-607.19zM512-23.844c-49.636 0-97.496 7.722-142.464 22.002l65.858 65.858c24.782-4.938 50.394-7.546 76.608-7.546 75.834 0 149.454 21.81 212.902 63.068 61.774 40.17 110.878 96.59 141.998 163.16 4.696 10.046 0.362 21.996-9.684 26.692-10.050 4.7-21.998 0.362-26.692-9.684-57.68-123.366-182.708-203.078-318.526-203.078-14.050 0-27.904 0.848-41.524 2.47l491.358 491.356c14.276-44.968 22.010-92.82 22.010-142.452 0-260.176-211.668-471.846-471.844-471.846z" />
<glyph unicode="&#xe940;" glyph-name="play" d="M879.393 468.078l-707.064 487.631c-7.485 5.145-17.189 5.681-25.186 1.512-8.022-4.218-13.044-12.508-13.044-21.578v-975.261c0-9.070 5.023-17.384 13.044-21.602 3.56-1.853 7.461-2.779 11.337-2.779 4.852 0 9.679 1.463 13.849 4.316l707.064 487.631c6.607 4.559 10.533 12.044 10.533 20.066s-3.95 15.507-10.533 20.066z" />
<glyph unicode="&#xe941;" glyph-name="play-2" d="M777.609 462.097l-375.467 256c-5.239 3.55-11.998 3.942-17.596 0.99-5.581-2.953-9.079-8.755-9.079-15.087v-512c0-6.332 3.499-12.134 9.097-15.087 2.492-1.331 5.239-1.98 7.97-1.98 3.362 0 6.724 1.007 9.609 2.97l375.467 256c4.659 3.174 7.458 8.448 7.458 14.097s-2.799 10.923-7.458 14.097zM409.6 224.307v447.386l328.107-223.693-328.107-223.693zM512 960c-282.317 0-512-229.683-512-512s229.683-512 512-512 512 229.683 512 512-229.683 512-512 512zM512-29.867c-263.492 0-477.867 214.374-477.867 477.867s214.374 477.867 477.867 477.867 477.867-214.374 477.867-477.867-214.374-477.867-477.867-477.867z" />
<glyph unicode="&#xe942;" glyph-name="ribbon" d="M132.105 960v-1023.037l385.487 393.715 374.303-394.678v1024h-759.79z" />
<glyph unicode="&#xe943;" glyph-name="search" d="M999.602-31.269l-287.271 298.755c73.273 73.485 118.667 174.791 118.667 286.517 0 223.878-182.118 405.996-405.996 405.996s-405.996-182.118-405.996-405.996 182.118-405.996 405.996-405.996c98.27 0 188.46 35.128 258.755 93.418l287.967-299.49c3.789-3.963 8.855-5.935 13.939-5.935 4.833 0 9.647 1.798 13.398 5.394 7.695 7.405 7.927 19.642 0.541 27.337zM425.001 186.674c-202.553 0-367.33 164.776-367.33 367.33s164.776 367.33 367.33 367.33 367.33-164.776 367.33-367.33-164.796-367.33-367.33-367.33z" />
<glyph unicode="&#xe944;" glyph-name="shapes" d="M468.738 841.889l47.527 11.26 36.218-32.757 3.948 48.599 42.36 24.422-45.138 18.816-10.042 47.771-31.733-37.095-48.599 5.265 25.396-41.824zM555.213 54.159l-47.527-11.309-36.267 32.806-3.9-48.599-42.36-24.519 45.090-18.718 10.042-47.771 31.733 37.047 48.599-5.265-25.396 41.775zM277.607 767.552l35.487 33.488 47.819-10.237-20.912 44.017 24.519 42.36-48.502-6.239-32.513 36.267-9.067-47.966-44.602-19.742 42.847-23.544zM746.442 128.497l-35.584-33.488-47.771 10.237 20.912-44.066-24.47-42.36 48.404 6.288 32.611-36.267 8.969 47.966 44.651 19.791-42.799 23.398zM120.694 647.004l28.565-39.484 13.941 46.796 46.503 14.965-40.118 27.688 0.049 48.892-38.753-29.589-46.406 15.16 16.135-46.113-28.711-39.386zM903.306 248.996l-28.565 39.484-13.99-46.698-46.503-15.111 40.118-27.639 0.049-48.941 38.655 29.637 46.455-15.111-16.232 46.016 28.857 39.484zM557.553 520.802l300.712-84.476 15.842 49.282-359.061 48.209 302.564 77.164-10.822 50.695-335.175-137.901 223.596 218.283-34.804 38.46-221.452-287.112 84.525 301.004-49.233 15.842-48.258-359.158-77.164 302.711-50.598-10.87 137.804-335.321-218.283 223.694-38.363-34.804 286.917-221.452-300.858 84.622-15.842-49.331 359.304-48.307-302.857-77.213 10.919-50.598 335.273 137.804-223.694-218.234 34.853-38.363 221.257 286.722-84.427-300.614 49.233-15.794 48.258 359.304 77.262-302.808 50.549 10.822-137.755 335.224 218.186-223.499 38.412 34.756-286.819 221.257zM597.329 447.049l-12.040-42.799-31.49-30.759-42.799-10.919-42.604 11.943-30.807 31.538-10.968 42.994 11.894 42.409 31.685 30.856 42.896 10.968 42.506-11.943 30.807-31.587 10.919-42.701zM73.703 424.724l44.407-19.986-11.309 47.576 32.806 36.169-48.599 3.948-24.422 42.409-18.865-45.041-47.722-10.139 37.095-31.733-5.265-48.551zM986.905 448.073l5.216 48.648-41.775-25.396-44.505 19.937 11.309-47.478-32.806-36.364 48.599-3.9 24.47-42.262 18.767 44.992 47.771 10.139zM169.147 296.815l-43.92-20.814-42.409 24.422 6.191-48.307-36.267-32.66 47.966-9.018 19.742-44.651 23.544 42.847 48.453 4.923-33.586 35.536zM854.755 599.038l43.969 20.814 42.36-24.373-6.337 48.404 36.413 32.66-47.966 8.872-19.742 44.749-23.544-42.847-48.502-4.923 33.537-35.487zM305.684 99.152l-14.965 46.455-27.639-39.971-48.941 0.049 29.54-38.802-15.16-46.406 46.113 16.135 39.435-28.711-1.072 48.843 39.435 28.565zM718.219 796.702l15.062-46.552 27.688 40.069 48.892 0.097-29.686 38.704 15.209 46.455-46.016-16.232-39.484 28.906 1.072-48.892-39.435-28.565z" />
<glyph unicode="&#xe945;" glyph-name="share" d="M820.396 236.16c-39.039 0-73.984-15.317-100.608-39.466l-366.636 213.248c2.646 11.818 4.693 23.723 4.693 36.011s-2.090 24.15-4.693 36.011l362.496 211.244c27.648-25.6 64.213-41.599 104.747-41.599 85.461 0 154.326 68.736 154.326 154.197 0 85.289-68.908 154.195-154.326 154.195-85.291 0-154.197-68.906-154.197-154.154 0-12.458 2.090-24.15 4.693-36.011l-362.498-211.413c-27.691 25.727-64.213 41.685-104.79 41.685-85.461 0-154.326-68.865-154.326-154.154s68.865-154.197 154.326-154.197c40.533 0 77.1 16.001 104.747 41.599l365.995-213.718c-2.517-10.881-4.097-22.229-4.097-33.537 0-82.774 67.455-150.102 150.102-150.102 82.731 0 150.229 67.286 150.229 150.102s-67.453 150.059-150.184 150.059z" />
<glyph unicode="&#xe946;" glyph-name="share-2" d="M811.375 302.14c-58.897 0-111.415-28.066-145.010-71.442l-281.302 157.13c6.591 18.924 10.206 39.336 10.206 60.385 0 21.262-3.615 41.462-10.419 60.598l281.090 156.917c33.382-43.588 86.113-71.867 145.223-71.867 100.784 0 183.070 82.073 183.070 183.070s-82.073 183.070-183.070 183.070-183.070-82.073-183.070-183.070c0-21.262 3.615-41.674 10.419-60.598l-280.877-156.917c-33.382 43.801-86.113 71.867-145.223 71.867-100.784 0-183.070-82.073-183.070-183.070s82.286-183.070 183.282-183.070c59.11 0 111.841 28.279 145.435 72.080l281.090-157.13c-6.804-19.136-10.631-39.761-10.631-61.023 0-100.784 82.073-183.070 183.070-183.070s183.070 82.073 183.070 183.070-82.286 183.070-183.282 183.070zM811.375 902.379c69.316 0 125.661-56.346 125.661-125.661s-56.346-125.661-125.661-125.661-125.661 56.346-125.661 125.661 56.558 125.661 125.661 125.661zM212.625 322.551c-69.316 0-125.661 56.346-125.661 125.661s56.346 125.661 125.661 125.661 125.661-56.346 125.661-125.661-56.558-125.661-125.661-125.661zM811.375-6.379c-69.316 0-125.661 56.346-125.661 125.661s56.346 125.661 125.661 125.661 125.661-56.346 125.661-125.661c0-69.316-56.346-125.661-125.661-125.661z" />
<glyph unicode="&#xe947;" glyph-name="social-media" d="M985.343 921.327c-25.779 25.786-56.671 38.673-92.661 38.673h-761.34c-36.002 0-66.885-12.892-92.671-38.673-25.781-25.774-38.668-56.662-38.668-92.657v-761.333c0-35.99 12.885-66.885 38.668-92.661 25.786-25.779 56.676-38.675 92.671-38.675h761.331c35.983 0 66.885 12.896 92.664 38.675 25.786 25.777 38.661 56.671 38.661 92.661v761.333c-0.002 36.002-12.875 66.873-38.654 92.657zM367.68 591.005c40.219 38.883 88.554 58.334 144.999 58.334 56.882 0 105.434-19.451 145.662-58.334 40.228-38.89 60.33-85.895 60.33-141.004 0-55.102-20.102-102.109-60.33-140.988-40.228-38.899-88.764-58.348-145.662-58.348-56.443 0-104.773 19.465-144.999 58.348-40.228 38.883-60.34 85.885-60.34 140.988 0 55.109 20.112 102.111 60.34 141.004zM908.016 94.659c0-11.547-4.012-21.209-12.004-28.992-8.016-7.776-17.557-11.666-28.679-11.666h-712.655c-11.554 0-21.228 3.89-28.999 11.666-7.783 7.766-11.671 17.445-11.671 28.992v432.015h93.997c-8.885-28.004-13.328-57.12-13.328-87.335 0-85.353 31.107-158.117 93.329-218.352 62.229-60.211 137.116-90.331 224.671-90.331 57.778 0 111.108 13.784 160.013 41.337 48.889 27.57 87.531 65.005 115.996 112.344 28.448 47.336 42.671 99.006 42.671 155 0 30.215-4.46 59.324-13.345 87.335h90.009v-432.015h-0.005zM908.016 690.008c0-12.889-4.444-23.78-13.347-32.667-8.885-8.894-19.768-13.335-32.665-13.335h-115.996c-12.882 0-23.782 4.444-32.667 13.335-8.887 8.887-13.328 19.778-13.328 32.667v109.99c0 12.446 4.441 23.222 13.328 32.336 8.887 9.109 19.787 13.669 32.667 13.669h115.996c12.896 0 23.782-4.558 32.665-13.669 8.901-9.114 13.347-19.89 13.347-32.336v-109.99z" />
<glyph unicode="&#xe948;" d="M317.795 801.102c0-24.188 1.060-48.022 3.178-71.679-52.365-7.274-91.365-52.011-91.453-104.871 0-3.602 0.176-7.186 0.53-10.77v-0.176c-80.347-21.998-156.688-56.619-226.16-102.575 23.182 187.284 147.561 346.603 323.617 414.54-6.464-41.172-9.712-82.785-9.712-124.469z" />
<glyph unicode="&#xe949;" d="M229.52 218.487c-0.018-72.933 9.976-145.513 29.66-215.744-160.306 90.887-259.315 260.975-259.173 445.258-0.052 21.062 1.254 42.126 3.884 63.027 69.473 45.956 145.813 80.577 226.16 102.575 3.972-37.518 27.578-70.125 61.969-85.627-41.366-97.929-62.621-203.172-62.499-309.489z" />
<glyph unicode="&#xe94a;" d="M441.38 624.551c-0.018-46.132-29.854-86.951-73.797-100.987-10.398-3.248-21.24-4.926-32.132-4.944-14.972-0.018-29.784 3.16-43.432 9.358-34.392 15.502-57.997 48.11-61.969 85.627v0.176c-0.354 3.584-0.53 7.168-0.53 10.77 0.070 52.859 39.088 97.597 91.453 104.871 4.802 0.706 9.64 1.060 14.478 1.060 51.659-0.018 95.779-37.324 104.341-88.275 1.076-5.826 1.606-11.742 1.588-17.656z" />
<glyph unicode="&#xe94b;" d="M676.191 932.984c-108.049-52.771-202.75-129.305-277.007-223.866-18.326 13.912-40.712 21.434-63.735 21.362-4.838 0-9.692-0.354-14.478-1.060-2.118 23.658-3.178 47.492-3.178 71.679 0 41.684 3.248 83.297 9.71 124.467 111.777 43.206 235.186 45.836 348.689 7.418z" />
<glyph unicode="&#xe94c;" d="M1020.818 391.152c-14.512-131.407-79.447-252.044-181.14-336.505-218.198 80.013-390.616 251.266-472.095 468.917 43.944 14.036 73.779 54.853 73.797 100.987 0.018 5.914-0.512 11.828-1.588 17.656h1.59c219.61 0.282 429.474-90.641 579.436-251.056z" />
<glyph unicode="&#xe94d;" d="M839.678 54.649c-163.82-136.491-395.066-157.164-580.496-51.905-48.728 173.76-37.164 358.908 32.838 525.237 13.648-6.196 28.46-9.374 43.432-9.358 10.894 0.018 21.734 1.694 32.132 4.944 81.477-217.652 253.898-388.906 472.095-468.917z" />
<glyph unicode="&#xe94e;" d="M1023.996 448.001c0.018-18.996-1.042-37.976-3.178-56.849-149.963 160.412-359.826 251.338-579.436 251.054h-1.588c-4.396 26.712-18.944 50.688-40.606 66.913 74.257 94.561 168.958 171.094 277.007 223.866 207.954-70.319 347.889-265.459 347.801-484.983z" />
<glyph unicode="&#xe94f;" d="M105.935 448.001c-4.678 0.070-9.146 1.89-12.536 5.12-0.706 0.882-1.412 1.766-2.118 2.648-0.67 0.988-1.2 2.048-1.588 3.178-0.512 1.006-0.866 2.066-1.060 3.178-0.212 1.166-0.318 2.348-0.354 3.532-0.052 9.746 7.804 17.708 17.55 17.762 4.75 0.036 9.304-1.854 12.642-5.226 3.23-3.39 5.050-7.856 5.12-12.536-0.036-1.182-0.158-2.366-0.354-3.532-0.194-1.112-0.548-2.172-1.060-3.178-0.388-1.13-0.918-2.19-1.588-3.178-0.706-0.882-1.412-1.766-2.118-2.648-3.39-3.212-7.856-5.048-12.536-5.12z" />
<glyph unicode="&#xe950;" d="M176.556 500.966c-2.312 0.036-4.59 0.512-6.708 1.412-4.432 1.606-7.928 5.102-9.534 9.534-0.9 2.118-1.378 4.396-1.412 6.708 0.036 1.13 0.142 2.242 0.354 3.354 0.158 1.166 0.512 2.312 1.060 3.354 0.354 1.076 0.9 2.1 1.588 3.002 0.6 1.006 1.306 1.96 2.118 2.824 7.026 6.674 18.044 6.674 25.070 0 3.23-3.39 5.050-7.856 5.12-12.536 0.052-2.312-0.424-4.608-1.412-6.708-0.9-2.136-2.154-4.114-3.708-5.826-3.392-3.212-7.858-5.048-12.536-5.118z" />
<glyph unicode="&#xe951;" d="M176.556 430.347c-2.312 0.036-4.59 0.512-6.708 1.412-4.432 1.606-7.928 5.102-9.534 9.534-0.9 2.118-1.378 4.396-1.412 6.708 0.036 1.182 0.142 2.366 0.354 3.532 0.194 1.112 0.548 2.172 1.060 3.178 0.388 1.13 0.918 2.19 1.588 3.178 0.654 0.936 1.36 1.818 2.118 2.648 1.712 1.554 3.69 2.824 5.826 3.708 6.586 2.772 14.178 1.306 19.244-3.708 3.23-3.39 5.050-7.856 5.12-12.536 0.052-2.312-0.424-4.608-1.412-6.708-0.9-2.136-2.154-4.114-3.708-5.826-3.392-3.214-7.858-5.050-12.536-5.12z" />
<glyph unicode="&#xe952;" d="M335.451 412.691c-2.312 0.036-4.59 0.512-6.708 1.412-2.136 0.9-4.096 2.154-5.826 3.708-3.248 3.372-5.084 7.856-5.12 12.536 0.018 2.312 0.494 4.59 1.412 6.708 0.848 2.154 2.118 4.132 3.708 5.826 1.712 1.554 3.69 2.824 5.826 3.708 6.586 2.772 14.178 1.306 19.244-3.708 1.554-1.712 2.808-3.69 3.708-5.826 0.988-2.1 1.466-4.396 1.412-6.708 0.088-9.658-7.662-17.566-17.32-17.656-0.106 0-0.212 0-0.336 0z" />
<glyph unicode="&#xe953;" d="M353.105 342.072c-1.182 0.036-2.366 0.142-3.532 0.354-1.112 0.194-2.172 0.548-3.178 1.060-1.13 0.388-2.19 0.918-3.178 1.588-0.936 0.654-1.818 1.36-2.648 2.118-0.76 0.848-1.466 1.73-2.118 2.648-0.67 0.988-1.2 2.048-1.588 3.178-0.512 1.006-0.866 2.066-1.060 3.178-0.212 1.166-0.318 2.348-0.354 3.532 0.070 4.678 1.89 9.146 5.12 12.536 0.882 0.706 1.766 1.412 2.648 2.118 0.988 0.67 2.048 1.2 3.178 1.588 1.006 0.512 2.066 0.866 3.178 1.060 5.808 1.094 11.794-0.67 16.066-4.766 3.23-3.39 5.050-7.856 5.12-12.536-0.036-1.182-0.158-2.366-0.354-3.532-0.194-1.112-0.548-2.172-1.060-3.178-0.388-1.13-0.918-2.19-1.588-3.178-0.706-0.882-1.412-1.766-2.118-2.648-3.388-3.214-7.854-5.050-12.534-5.12z" />
<glyph unicode="&#xe954;" d="M423.726 854.067c-1.182 0.036-2.366 0.158-3.532 0.354-1.112 0.194-2.172 0.548-3.178 1.060-1.13 0.388-2.19 0.918-3.178 1.588-0.882 0.706-1.766 1.412-2.648 2.118-1.588 1.694-2.86 3.672-3.708 5.826-0.9 2.118-1.378 4.396-1.412 6.708 0 9.746 7.91 17.656 17.656 17.656s17.656-7.91 17.656-17.656c-0.036-2.312-0.512-4.59-1.412-6.708-0.866-2.154-2.118-4.132-3.708-5.826-0.882-0.706-1.766-1.412-2.648-2.118-0.988-0.67-2.048-1.2-3.178-1.588-1.006-0.512-2.084-0.866-3.178-1.060-1.166-0.196-2.35-0.32-3.532-0.354z" />
<glyph unicode="&#xe955;" d="M388.416 783.446c-2.312-0.052-4.626 0.424-6.708 1.412-2.136 0.9-4.096 2.154-5.826 3.708-3.214 3.39-5.050 7.856-5.12 12.536 0.018 2.312 0.494 4.59 1.412 6.708 1.624 4.432 5.102 7.91 9.534 9.534 6.586 2.736 14.16 1.272 19.244-3.708 1.554-1.712 2.808-3.69 3.708-5.826 0.988-2.084 1.484-4.396 1.412-6.708 0.088-9.658-7.662-17.566-17.32-17.656-0.108 0-0.214 0-0.336 0z" />
<glyph unicode="&#xe956;" d="M459.036 483.313c-4.678 0.036-9.162 1.872-12.536 5.12-3.214 3.39-5.050 7.856-5.12 12.536 0.018 2.312 0.494 4.59 1.412 6.708 0.848 2.154 2.118 4.132 3.708 5.826 0.882 0.706 1.766 1.412 2.648 2.118 0.988 0.67 2.048 1.2 3.178 1.588 1.006 0.512 2.066 0.866 3.178 1.060 2.33 0.53 4.732 0.53 7.062 0 1.112-0.194 2.172-0.548 3.178-1.060 1.13-0.388 2.19-0.918 3.178-1.588 0.882-0.706 1.766-1.412 2.648-2.118 6.832-6.956 6.832-18.114 0-25.070-3.372-3.25-7.856-5.086-12.534-5.12z" />
<glyph unicode="&#xe957;" d="M512.001 553.932c-9.798 0.036-17.69 7.998-17.656 17.796 0.018 4.644 1.854 9.092 5.12 12.394 5.068 5.014 12.658 6.48 19.244 3.708 2.136-0.9 4.114-2.154 5.826-3.708 0.706-0.882 1.412-1.766 2.118-2.648 0.67-0.988 1.2-2.048 1.588-3.178 0.512-1.006 0.866-2.084 1.060-3.178 0.476-2.33 0.476-4.732 0-7.062-0.194-1.112-0.548-2.172-1.060-3.178-0.388-1.13-0.918-2.19-1.588-3.178-0.706-0.882-1.412-1.766-2.118-2.648-3.39-3.214-7.856-5.050-12.534-5.12z" />
<glyph unicode="&#xe958;" d="M529.655 483.313c-1.182 0.036-2.366 0.158-3.532 0.354-1.112 0.194-2.172 0.548-3.178 1.060-1.13 0.388-2.19 0.918-3.178 1.588-0.882 0.706-1.766 1.412-2.648 2.118-3.214 3.39-5.050 7.856-5.12 12.536 0.018 2.312 0.494 4.59 1.412 6.708 0.848 2.154 2.118 4.132 3.708 5.826 7.080 6.532 17.99 6.532 25.070 0 1.588-1.694 2.86-3.654 3.708-5.826 0.9-2.118 1.394-4.414 1.412-6.708 0.088-9.658-7.662-17.566-17.32-17.656-0.104 0-0.21 0-0.334 0z" />
<glyph unicode="&#xe959;" d="M176.556 677.517c-2.312 0.036-4.59 0.512-6.708 1.412-4.432 1.606-7.928 5.102-9.534 9.534-0.9 2.118-1.378 4.396-1.412 6.708 0.036 1.182 0.142 2.366 0.354 3.532 0.194 1.112 0.548 2.172 1.060 3.178 0.388 1.13 0.918 2.19 1.588 3.178 0.654 0.936 1.36 1.818 2.118 2.648 1.712 1.554 3.69 2.824 5.826 3.708 6.586 2.772 14.178 1.306 19.244-3.708 3.23-3.39 5.050-7.856 5.12-12.536 0.052-2.312-0.424-4.608-1.412-6.708-0.9-2.136-2.154-4.114-3.708-5.826-3.392-3.214-7.858-5.050-12.536-5.12z" />
<glyph unicode="&#xe95a;" d="M229.52 748.136c-1.182 0.036-2.366 0.142-3.532 0.354-1.112 0.194-2.172 0.548-3.178 1.060-1.13 0.388-2.19 0.918-3.178 1.588-0.936 0.654-1.818 1.36-2.648 2.118-1.554 1.712-2.824 3.69-3.708 5.826-0.9 2.118-1.378 4.396-1.412 6.708 0.070 4.678 1.89 9.146 5.12 12.536 0.882 0.706 1.766 1.412 2.648 2.118 0.988 0.67 2.048 1.2 3.178 1.588 1.006 0.512 2.066 0.866 3.178 1.060 3.442 0.724 7.026 0.354 10.24-1.060 2.136-0.9 4.114-2.154 5.826-3.708 3.23-3.39 5.050-7.856 5.12-12.536 0.052-2.312-0.424-4.608-1.412-6.708-1.606-4.432-5.102-7.928-9.534-9.534-2.118-0.898-4.394-1.374-6.708-1.41z" />
<glyph unicode="&#xe95b;" d="M494.345 695.173c-1.13 0.036-2.242 0.142-3.354 0.354-1.166 0.176-2.312 0.53-3.354 1.060-1.13 0.388-2.19 0.918-3.178 1.588-0.936 0.654-1.818 1.36-2.648 2.118-1.588 1.694-2.86 3.672-3.708 5.826-0.9 2.118-1.378 4.396-1.412 6.708 0.070 4.678 1.89 9.146 5.12 12.536 0.882 0.706 1.766 1.412 2.648 2.118 0.988 0.67 2.048 1.2 3.178 1.588 1.060 0.53 2.19 0.882 3.354 1.060 5.756 1.042 11.652-0.724 15.89-4.766 3.23-3.39 5.050-7.856 5.12-12.536-0.036-2.312-0.512-4.59-1.412-6.708-0.866-2.154-2.118-4.132-3.708-5.826-3.39-3.214-7.858-5.050-12.536-5.12z" />
<glyph unicode="&#xe95c;" d="M547.311 748.136c-9.658-0.088-17.566 7.662-17.656 17.32 0 0.106 0 0.23 0 0.336 0.036 1.182 0.158 2.366 0.354 3.532 0.194 1.112 0.548 2.172 1.060 3.178 0.388 1.13 0.918 2.19 1.588 3.178 0.706 0.882 1.412 1.766 2.118 2.648 6.92 6.92 18.15 6.92 25.070 0s6.92-18.15 0-25.070c-0.882-0.706-1.766-1.412-2.648-2.118-0.988-0.67-2.048-1.2-3.178-1.588-1.006-0.512-2.084-0.866-3.178-1.060-1.164-0.196-2.348-0.32-3.53-0.356z" />
<glyph unicode="&#xe95d;" d="M582.62 677.517c-2.312-0.052-4.626 0.424-6.708 1.412-4.432 1.606-7.928 5.102-9.534 9.534-0.9 2.118-1.378 4.396-1.412 6.708 0.070 4.678 1.89 9.146 5.12 12.536 1.678 1.606 3.654 2.86 5.826 3.708 6.586 2.754 14.16 1.288 19.244-3.708 3.23-3.39 5.050-7.856 5.12-12.536 0.052-2.312-0.424-4.608-1.412-6.708-0.866-2.154-2.118-4.132-3.708-5.826-3.39-3.214-7.858-5.050-12.536-5.12z" />
<glyph unicode="&#xe95e;" glyph-name="symbol" d="M329.122 25.755c-189.426 0-315.413 93.102-320.667 97.044-7.713 5.784-10.531 16.061-6.865 25.002s12.989 14.239 22.417 12.946c18.455-2.479 36.826-3.772 54.603-3.772 88.208 0 149.888 30.533 184.828 54.624-113.507 27.927-154.104 136.2-155.99 141.391-2.437 6.738-1.314 14.302 3.030 19.981 4.322 5.742 11.357 8.899 18.413 8.369 1.081-0.064 2.14-0.148 3.157-0.212-96.026 66.532-96.111 182.116-96.090 183.493 0.085 7.225 3.835 13.9 9.959 17.735 6.123 3.856 13.751 4.28 20.299 1.187 5.594-2.627 10.785-4.916 15.574-6.886-93.505 124.737-17.205 246.169-16.315 247.525 3.687 5.7 9.853 9.281 16.612 9.641 6.802 0.424 13.285-2.479 17.586-7.734 123.211-150.587 306.365-193.197 375.482-204.279-2.733 31.613 0.509 77.635 19.409 121.008 22.862 52.526 64.561 90.899 120.52 111.028 30.278 10.891 60.218 16.4 88.992 16.4 78.546 0 128.932-40.279 148.892-60.027 58.756 16.167 105.519 44.687 106.049 45.004 7.141 4.386 16.252 4.153 23.18-0.614 6.907-4.81 10.319-13.2 8.73-21.464-5.382-27.693-20.701-53.543-36.783-74.435 23.985 7.268 37.906 15.044 38.139 15.192 8.115 4.577 18.18 3.369 24.939-2.924 6.78-6.293 8.708-16.273 4.746-24.6-16.591-34.77-75.431-86.555-97.573-105.349-2.543-304.31-187.052-540.075-472.42-602.030-40.555-8.814-81.894-13.243-122.851-13.243zM108.189 115.636c52.124-23.159 128.826-47.505 220.933-47.505 37.949 0 76.258 4.111 113.846 12.289 268.12 58.226 440.446 282.104 439.005 570.438-0.042 6.378 2.818 12.438 7.755 16.485 13.688 11.188 31.846 27.227 48.712 43.691-13.116-2.712-27.693-4.895-43.542-6.060-9.302-0.678-17.862 4.767-21.252 13.37-3.411 8.624-0.784 18.476 6.441 24.282 0.424 0.318 25.214 20.468 45.322 48.31-21.019-9.026-46.636-18.392-74.499-25.024-7.946-1.928-16.442 1.017-21.549 7.501-1.716 2.14-44.665 54.433-125.288 54.433-23.858 0-48.988-4.683-74.647-13.9-44.814-16.103-76.914-45.259-95.37-86.619-24.282-54.433-17.205-112.109-13.179-121.94 2.755-6.78 1.886-14.662-2.394-20.595-4.301-5.933-11.315-9.196-18.582-8.878-10.361 0.742-246.063 19.26-411.439 198.494-15.701-42.674-29.728-129.695 65.96-213.686 5.403-4.746 8.030-11.887 6.992-18.985-1.017-7.098-5.573-13.2-12.077-16.209-2.86-1.314-9.281-3.517-20.341-3.517-13.285 0-28.944 3.072-46.805 9.175 8.836-42.843 37.779-115.202 132.725-142.472 7.204-2.076 12.798-7.776 14.641-15.065 1.886-7.246-0.212-14.938-5.53-20.277-6.696-6.674-22.884-14.62-61.828-15.446 21.464-34.919 67.952-88.526 151.858-90.496 8.221-0.212 15.552-5.085 18.9-12.628 3.305-7.501 1.992-16.273-3.39-22.481-3.305-3.644-76.893-86.407-221.378-96.683zM728.42 748.962c-35.194 0-63.714-28.52-63.714-63.693s28.52-63.693 63.714-63.693c35.173 0 63.693 28.52 63.693 63.693s-28.52 63.693-63.693 63.693zM728.441 671.476c-16.4 0-29.706 13.328-29.706 29.728 0 16.379 13.306 29.706 29.706 29.706s29.685-13.328 29.685-29.706c0-16.4-13.285-29.728-29.685-29.728z" />
</font>
</defs>
</svg>
